<?xml version="1.0"?>
<svg width="500" height="500" xmlns="http://www.w3.org/2000/svg" xmlns:svg="http://www.w3.org/2000/svg">
 <g class="layer">
  <title>Layer 1</title>
  <g id="svg_1" transform="matrix(0.69868, 0, 0, 0.69868, -0.00052314, 78.7047)">
   <path d="m347.87,451.9c16.99,5.3 28.02,18.36 24.65,29.17c-3.38,10.81 -19.88,15.27 -36.87,9.97c-6.81,-2.03 -13.05,-5.65 -18.17,-10.58l-71.69,-23.36l11.68,-33.41l69.43,26.58c7.02,-1.14 14.21,-0.58 20.97,1.63l0,0z" fill="#005431" id="uuid-25964adc-e6e4-4b9a-b8ec-929b0c1831fb-1293"/>
   <path d="m194.3,206.79l0,0c-17.09,-2.02 -32.83,9.53 -36.01,26.44c-11.36,60.34 -35.48,190.8 -32.3,193.98c4.13,4.14 158.53,49.63 158.53,49.63l17.92,-38.6l-102.01,-49.63l22.37,-144.3c2.84,-18.32 -10.09,-35.34 -28.5,-37.52l0,0z" fill="#005431" id="svg_2"/>
  </g>
  <g id="svg_3" transform="matrix(0.69868, 0, 0, 0.69868, -0.00052314, 78.7047)">
   <path d="m380.31,514.66c-16.57,6.47 -33.35,3.17 -37.46,-7.38s5.98,-24.34 22.56,-30.82c6.58,-2.67 13.72,-3.73 20.8,-3.09l70.57,-26.54l11.75,33.38l-70.82,22.62c-4.77,5.28 -10.74,9.33 -17.4,11.83l0,0z" fill="#005431" id="uuid-a5d71dbf-4b88-4e86-8463-d776047f9b39-1294"/>
   <path d="m482.08,228.15l0,0c16.92,-3.17 33.4,7.3 37.71,23.96c15.39,59.43 48.22,187.98 45.27,191.37c-3.85,4.4 -154.84,60.16 -154.84,60.16l-20.48,-37.3l98.45,-56.37l-32.02,-142.47c-4.06,-18.09 7.69,-35.94 25.91,-39.35l0,0z" fill="#005431" id="svg_4"/>
  </g>
  <polygon fill="#005431" id="svg_5" points="127.29683673275849,229.24005569550627 133.17131238512502,192.52460419024737 93.51863371469881,176.36980680725537 87.6441527318243,232.17729352168953 127.29683673275849,229.24005569550627"/>
  <polygon fill="#005431" id="svg_6" points="358.8859902470831,235.01895533988863 353.01153591674847,198.3035144956457 392.66422524819063,182.14871711265369 398.53870090055716,237.9561931660719 358.8859902470831,235.01895533988863"/>
  <g id="svg_7" transform="matrix(0.69868, 0, 0, 0.69868, -0.00052314, 78.7047)">
   <circle cx="167.85" cy="121.92" fill="#005431" id="svg_8" r="57.88"/>
   <path d="m163.24,44.12c1.67,0.97 3.91,-0.51 4.45,-2.37s-0.09,-3.84 -0.71,-5.68l-3.12,-9.25c-2.22,-6.56 -4.57,-13.35 -9.36,-18.34c-7.24,-7.53 -18.75,-9.45 -29.1,-8.06c-13.3,1.78 -26.43,8.98 -32.61,20.89c-6.19,11.91 -3.55,28.53 7.62,35.96c-15.92,18.25 -21.48,38.6 -20.6,62.81s27.26,46.49 44.46,63.54c3.85,-2.33 7.34,-13.24 5.23,-17.21c-2.12,-3.96 0.91,-8.56 -1.71,-12.21c-2.61,-3.65 -4.8,2.16 -2.16,-1.47c1.67,-2.29 -4.84,-7.56 -2.36,-8.93c12,-6.64 15.99,-21.6 23.53,-33.05c9.09,-13.82 24.65,-23.18 41.12,-24.73c9.07,-0.85 18.65,0.7 26.09,5.96s12.25,14.68 10.52,23.63c4.47,-4.54 6.69,-11.18 5.85,-17.49s-4.72,-12.14 -10.21,-15.35c3.34,-11.05 0.48,-23.76 -7.28,-32.31c-7.75,-8.55 -39.21,-7.09 -50.53,-4.84" fill="#005431" id="svg_9"/>
   <path d="m161.48,86.36c-15,1.62 -25.82,14.6 -34.96,26.6c-5.27,6.91 -10.79,14.55 -10.66,23.24c0.13,8.79 6.01,16.32 8.82,24.65c4.59,13.61 0.11,29.81 -10.81,39.14c10.79,2.04 22.46,-6.05 24.33,-16.88c2.17,-12.6 -7.39,-24.77 -6.26,-37.51c1,-11.23 9.84,-19.87 17.36,-28.26c7.53,-8.39 14.59,-19.53 11.13,-30.26" fill="#005431" id="svg_10"/>
  </g>
  <path d="m131.88,223.09l-45.78,-12.53l-47.2,19.26l-20.23,159.89l115.58,3.85l0,-25.79s20.23,-25.26 16.37,-61.85l-3.85,-36.6l-14.9,-46.22z" fill="#005431" id="svg_11"/>
  <path d="m153.04,288.1l-90.53,-4.82l-24.57,69.83s-30.34,41.89 -35.15,72.72c-4.82,30.82 -1.93,74.16 -1.93,74.16l144.94,0l-11.54,-132.22s26.96,-58.49 23.83,-68.6c-3.13,-10.12 -5.05,-11.07 -5.05,-11.07l0,0z" fill="#ffffff" id="svg_12"/>
  <rect fill="#ffffff" height="117.17" id="svg_13" transform="matrix(0.69868, 0, 0, 0.69868, -0.00052314, 78.7047)" width="31.71" x="88.08" y="189.41"/>
  <rect fill="#ffffff" height="93.06" id="svg_14" transform="matrix(0.69868, 0, 0, 0.69868, -0.00052314, 78.7047)" width="27.71" x="184.95" y="209.04"/>
  <path d="m352.38,230.79l45.78,-12.52l47.2,19.26l20.23,159.89l-115.58,3.85l0,-25.79s-11.83,-26.36 -0.48,-61.37c11.07,-34.19 -12.04,-37.09 -12.04,-37.09l14.9,-46.23l0,0z" fill="#005431" id="svg_15"/>
  <path d="m331.22,295.8l90.53,-4.81l24.56,69.83s14.93,47.68 19.74,78.5s17.33,68.39 17.33,68.39l-144.94,0l-4.35,-127.14l-2.89,-84.76l0,0z" fill="#ffffff" id="svg_16"/>
  <rect fill="#ffffff" height="117.17" id="svg_17" transform="matrix(0.69868, 0, 0, 0.69868, -0.00052314, 78.7047)" width="31.71" x="573.32" y="200.44"/>
  <rect fill="#ffffff" height="96.5" id="svg_18" transform="matrix(0.69868, 0, 0, 0.69868, -0.00052314, 78.7047)" width="31.71" x="475.44" y="226.63"/>
  <circle cx="526.48" cy="115.36" fill="#005431" id="svg_19" r="72.49" transform="matrix(0.69868, 0, 0, 0.69868, -0.00052314, 78.7047)"/>
  <path d="m417.66,186.78s-24.5,-29.41 -34.31,-26.96s-3.68,6.13 -3.68,6.13l-24.5,-26.96s-19.6,-7.35 -37.98,15.93c0,0 -11.03,-19.6 0,-30.63c11.03,-11.03 14.71,-9.8 17.15,-15.92c2.45,-6.13 19.6,-11.03 19.6,-11.03c0,0 -0.99,-8.82 4.41,-4.41c5.39,4.41 18.86,4.41 18.86,4.41c0,0 0.08,-4.9 5.55,0s11.61,2.45 11.61,2.45c0,0 0,8.48 4.29,8.53s11.64,-6.08 12.86,-1.18s9.8,7.35 11.03,22.05s-4.9,57.59 -4.9,57.59z" fill="#005431" id="svg_20"/>
  <g id="svg_21" transform="matrix(0.69868, 0, 0, 0.69868, -0.00052314, 78.7047)">
   <path d="m328.94,262.87l56.12,106.09l-7.69,4.07l-56.12,-106.09c-0.82,-1.54 -0.23,-3.45 1.31,-4.27l2.12,-1.12c1.54,-0.81 3.45,-0.22 4.26,1.32l0,0z" fill="#005431" id="svg_22"/>
   <path d="m422.44,409.06c-14.28,-3.68 -29.22,2.84 -36.38,15.72c-8.97,16.14 -19.22,29.38 -15.79,-2.17c3.78,-34.74 -16.6,-62.79 -0.58,-71.26c16.01,-8.47 32.55,17.27 58.57,40.58c24.13,21.6 10.22,21.26 -5.82,17.13l0,0z" fill="#005431" id="svg_23"/>
  </g>
  <g id="svg_24" transform="matrix(0.69868, 0, 0, 0.69868, -0.00052314, 78.7047)">
   <path d="m339.8,284.33c16.18,-7.39 33.11,-5.03 37.82,5.27c4.7,10.3 -4.61,24.64 -20.8,32.03c-6.43,3.05 -13.49,4.5 -20.6,4.25l-68.98,30.45l-13.59,-32.67l69.44,-26.55c4.47,-5.53 10.2,-9.91 16.71,-12.78l0,0z" fill="#005431" id="uuid-cca3ea91-4b8f-4d88-9418-fea0098b5ff4-1295"/>
   <path d="m61.85,204.29l0,0c-14.08,9.9 -18.09,29.01 -9.18,43.73c31.81,52.51 100.92,165.77 105.41,166.01c5.84,0.32 151.18,-68.85 151.18,-68.85l-12.42,-40.7l-109.09,31.13l-79.64,-122.4c-10.12,-15.53 -31.1,-19.58 -46.26,-8.92c0,0 0,0 0,0z" fill="#005431" id="svg_25"/>
  </g>
  <path d="m242.22,391.2l130.26,-68.9l15.99,30.22c13.79,26.07 3.82,58.44 -22.25,72.24l-35.77,18.92c-26.07,13.79 -58.44,3.82 -72.24,-22.26l-15.99,-30.22l0,0l0,0l0,0z" fill="#005431" id="svg_26"/>
  <path d="m352.59,437.52c-11.31,5.16 -23.14,3.51 -26.42,-3.68s3.21,-17.22 14.53,-22.38c4.49,-2.12 9.43,-3.14 14.39,-2.97l48.19,-21.28l9.5,22.83l-48.51,18.56c-3.12,3.86 -7.13,6.92 -11.67,8.93l0,0z" fill="#005431" id="uuid-f7f7485f-a1d4-48b6-9f93-907c0610bac7-1296"/>
  <path d="m450.59,233.78l0,0c11.94,-1.41 22.94,6.66 25.17,18.48c7.93,42.15 24.79,133.31 22.57,135.52c-2.89,2.89 -110.76,34.68 -110.76,34.68l-12.52,-26.97l71.27,-34.68l-15.63,-100.82c-1.98,-12.8 7.04,-24.69 19.91,-26.21l0,0z" fill="#005431" id="svg_27"/>
 </g>

</svg>