<?xml version="1.0"?>
<svg width="500" height="500" xmlns="http://www.w3.org/2000/svg" xmlns:svg="http://www.w3.org/2000/svg" xmlns:xlink="http://www.w3.org/1999/xlink">
 <defs>
  <symbol height="510.68" id="svg_118" width="996.31" xmlns="http://www.w3.org/2000/svg" xmlns:svg="http://www.w3.org/2000/svg">
   <g class="layer" id="svg_1">
    <title>Layer 1</title>
    <path d="m668.05,245.28l-6.57,-19.7l39.36,-13.44l-10.45,-91.98l0,0c18.81,3.42 27.76,18.2 26.92,37.3l5.09,62.77l-54.35,25.05z" fill="#005431" id="svg_117"/>
    <path d="m671.19,240.94l-29.56,6.85a9.02,9.02 0 0 1 -10.76,-6.5l0,0a9.02,9.02 0 0 1 8.51,-11.3l28.55,-0.66l3.26,11.61z" fill="#005431" id="svg_116" transform="matrix(1, 0, 0, 1, 0, 0)"/>
    <polygon fill="#ffffff" id="svg_115" points="686.2249431610107,180.57345962524414 686.1989421844482,180.74745559692383 686.1280193328857,181.25046157836914 678.8009929656982,233.82846450805664 633.9369792938232,250.2894630432129 633.2339763641357,249.95346450805664 608.1159954071045,238.0244483947754 595.1280193328857,188.1904640197754 594.2380046844482,184.7694435119629 594.5090007781982,184.6654396057129 650.0749797821045,163.7894630432129 686.1919841766357,180.5534553527832 686.2249431610107,180.57345962524414"/>
    <polygon fill="#ffffff" id="svg_114" points="633.2339763641357,249.95346450805664 608.1159954071045,238.0244483947754 594.2380046844482,184.7694435119629 594.5090007781982,184.6654396057129 630.7099895477295,199.93844985961914 633.2339763641357,249.95346450805664"/>
    <polygon id="svg_113" opacity="0.2" points="633.8639812469482,249.34546279907227 614.7580242156982,212.73146438598633 617.2120037078857,202.35145950317383 605.6549968719482,188.7424659729004 604.6709880828857,189.57846450805664 615.8050212860107,202.68945693969727 607.4880046844482,237.87546157836914 608.7449626922607,238.17346572875977 614.3039836883545,214.65243911743164 632.7189617156982,249.94244766235352 633.8639812469482,249.34546279907227"/>
    <polygon fill="#bcbcbc" id="svg_112" points="686.2249431610107,181.21844863891602 686.1280193328857,181.25046157836914 630.7099895477295,200.58444595336914 595.1280193328857,188.1904640197754 594.2380046844482,184.7694435119629 594.5090007781982,184.6654396057129 650.0749797821045,163.7894630432129 686.1919841766357,180.5534553527832 686.1989421844482,180.74745559692383 686.2249431610107,181.21844863891602"/>
    <polygon fill="#ffffff" id="svg_111" points="631.6779460906982,201.55246353149414 620.3809490203857,192.83844375610352 622.9629802703857,183.15544509887695 655.2389812469482,171.53544998168945 677.1869792938232,172.8264503479004 685.9019451141357,180.25046157836914 686.5469646453857,182.18645095825195 631.6779460906982,201.55246353149414"/>
    <path d="m695.24,99.88l64.3,0l0,-31.98a32.8,32.8 0 0 0 -9.42,-23.09a31.69,31.69 0 0 0 -22.73,-9.56a32.2,32.2 0 0 0 -32.14,31.8c-0.01,0.29 -0.01,0.57 -0.01,0.85l0,31.98z" fill="#005431" id="svg_110"/>
    <path d="m786.42,475.63l-20.55,-2.36l-24.6,-166.11l-50.88,166.79l-22.24,0.67l25.28,-205.2l-3.71,-46.83l63.01,-19.88c44.62,31.15 43.7,141.19 33.69,272.92z" fill="#005431" id="svg_109"/>
    <circle cx="721.72" cy="69.28" fill="#005431" id="svg_108" r="24.26"/>
    <path d="m745.99,113.08l-41.11,10.78c6.93,-13.32 9.14,-25.75 5.39,-37.06l28.98,-4.72a42.28,42.28 0 0 0 6.74,31z" fill="#005431" id="svg_107"/>
    <path d="m759.8,211.81c-23.05,14.66 -49.91,31.5 -69.74,15.16l-9.44,-45.83c-7.5,-6.68 -4.17,-27.29 5.97,-56.66a12.99,12.99 0 0 1 8.05,-8.05l15.63,-5.37c6.93,5.82 18.29,2.35 31.68,-5.39l15.49,4.04l6.74,50.54c-9.72,14.58 -8.02,33.98 -4.38,51.56z" fill="#005431" id="svg_106"/>
    <path d="m782.85,507.39c-3.45,1.58 -6.34,-8.19 -9.26,-5.33c-8.14,8.01 -27.68,6.21 -27.68,6.21a5.09,5.09 0 0 1 -3.21,-6.63l0,0a5.09,5.09 0 0 1 3.53,-3.15l8.67,-2.17l13.6,-23.92l14.82,-1.87l0.37,0.61a38.22,38.22 0 0 1 4.1,31.25c-1.23,3.95 -2.91,4.08 -4.94,5z" fill="#005431" id="svg_105"/>
    <path d="m685.14,507.39c-3.46,1.58 -6.35,-8.19 -9.26,-5.33c-8.14,8.01 -27.68,6.21 -27.68,6.21a5.09,5.09 0 0 1 -3.21,-6.63l0,0a5.09,5.09 0 0 1 3.53,-3.15l8.66,-2.17l13.6,-23.92l14.82,-1.87l0.38,0.61a38.22,38.22 0 0 1 4.09,31.25c-1.23,3.95 -2.91,4.08 -4.93,5z" fill="#005431" id="svg_104"/>
    <path d="m750.17,49.04l-6.11,19.44l-52.83,-0.94a32.66,32.66 0 0 1 58.94,-18.5z" fill="#005431" id="svg_103"/>
    <path d="m737.46,235.84l-6.57,-19.69l39.36,-13.44l-14.89,-93.98l0,0a38.24,38.24 0 0 1 31.36,39.3l5.09,62.76l-54.35,25.05z" fill="#005431" id="svg_102"/>
    <rect fill="#ccc" height="1.29" id="svg_101" transform="rotate(-19.3376, -95.5286, 541.005)" width="14.09" x="-102.57" y="540.36"/>
    <polygon fill="#ffffff" id="svg_100" points="723.6689224243164,233.25550842285156 696.6689224243164,233.25550842285156 692.6689224243164,181.25550842285156 727.6689224243164,181.25550842285156 723.6689224243164,233.25550842285156"/>
    <rect fill="#e6e6e6" height="8" id="svg_99" width="36" x="692.17" y="202.26"/>
    <polygon fill="#c1c1c1" id="svg_98" points="729.6689224243164,178.25550842285156 723.6689224243164,178.25550842285156 723.0019226074219,176.25550842285156 696.3359222412109,176.25550842285156 695.6689224243164,178.25550842285156 689.6689224243164,178.25550842285156 687.6689224243164,184.25550842285156 731.6689224243164,184.25550842285156 729.6689224243164,178.25550842285156"/>
    <path d="m740.6,231.51l-29.56,6.85a9.02,9.02 0 0 1 -10.76,-6.5l0,0a9.02,9.02 0 0 1 8.51,-11.3l28.55,-0.67l3.26,11.62z" fill="#005431" id="svg_97"/>
    <polygon fill="#ffffff" id="svg_96" points="594.8830242156982,184.7694435119629 620.3809490203857,183.8004493713379 634.193998336792,179.1124610900879 655.7299480438232,171.53544998168945 659.7580242156982,165.72645950317383 649.7079753875732,163.92746353149414 594.8830242156982,184.7694435119629"/>
   </g>
  </symbol>
 </defs>
 <g class="layer">
  <title>Layer 1</title>
  <rect fill="#ccc" height="32.16" id="svg_55" transform="rotate(-25.7187, 673.654, 988.88)" width="0.44" x="673.43" y="972.8"/>
  <g id="svg_3" transform="translate(1) matrix(1, 0, 0, 1, 3, 0)">
   <g id="svg_71" transform="matrix(-0.82825, 0, 0, 0.836258, 620.795, 73.4469)">
    <path d="m406.87,189.86s36.84,14.96 42.9,-1.85s-29.09,-16.53 -29.09,-16.53l-13.8,1.96l-0.01,16.42z" fill="#005431" id="svg_16"/>
    <g id="svg_70">
     <polygon fill="#005431" id="svg_8" points="280.668 44.344 274.435 75.507 303.521 97.322 317.026 56.809 280.668 44.344"/>
     <circle cx="304.04" cy="44.86" fill="#005431" id="svg_9" r="28.05"/>
     <path d="m243.28,257.38c0.12,9.04 39.53,109.75 34.06,122.87c-8.62,8.81 -27.18,55.74 -35.1,68.26c-1.04,0 -6.24,15.58 -6.24,15.58s12.47,19.74 25.97,11.43c16.98,-39.94 59.51,-62.21 60.26,-114.26c2.05,16.44 8.11,121.99 8.11,121.99s-1.16,0.49 25,3c4.06,-61.26 20.66,-165.48 -16.5,-230.95c-11.42,-5.2 -95.56,2.08 -95.56,2.08z" fill="#005431" id="svg_10"/>
     <path d="m330.34,481.19c-1.21,2.34 -9.92,23.89 -2,26.06c9.14,2.49 18,-1 18,-1s16,5 25.79,-1.36c4.57,-4.57 3.54,-8.72 1.35,-11.73a12.72,12.72 0 0 0 -9.43,-5.09c-4.97,-0.36 -6.55,-1.28 -7.12,-3.55c-0.83,-3.33 -26.59,-3.33 -26.59,-3.33z" fill="#005431" id="svg_11"/>
     <path d="m244.87,462.37s-22.33,7.05 -17.63,15.27a30.91,30.91 0 0 0 12.84,11.84s4.66,19.2 17.58,19.2c6.47,0 8.67,-3.67 9.26,-7.35a12.72,12.72 0 0 0 -3.08,-10.27c-3.26,-3.76 -3.73,-5.53 -2.52,-7.54c1.76,-2.94 -16.45,-21.15 -16.45,-21.15z" fill="#005431" id="svg_12"/>
     <path d="m344.04,260.42s-4.16,8.31 -20.78,5.19c-16.62,-3.11 -82.06,0 -82.06,0s3.63,-74.27 -4.68,-118.94s24.41,-70.12 24.41,-70.12l10.39,-10.39c10.39,-1.03 32.33,31.21 32.33,31.21c7.22,1.21 13.96,31.9 19.71,60.94c0.34,1.66 0.66,3.3 0.98,4.94c2.65,13.54 6.34,28.61 8.55,42.14c0.16,0.96 0.31,1.91 0.45,2.86a494.56,494.56 0 0 0 10.7,52.17z" fill="#005431" id="svg_13"/>
     <path d="m271.23,27.4s-5.24,-11.54 8.39,-16.78c0,0 11.54,-18.88 34.61,-6.29c0,0 15.73,6.29 15.73,23.07s5.25,19.93 5.25,19.93s-7.81,-8.01 -9.91,-14.31s-18.41,-7.72 -24.7,-1.42s-22.03,5.24 -22.03,5.24l1.05,23.07s-5.24,-13.63 -7.34,-13.63s-4.19,-18.88 -1.05,-18.88z" fill="#005431" id="svg_14"/>
     <path d="m332.89,205.39c-24.78,-13.47 -64.92,-43.01 -77.87,-58.99c-17.07,-21.05 1.55,-37.05 1.55,-37.05c21.11,-13.32 46.35,32.38 46.35,32.38l20.44,16.58c0.34,1.66 0.66,3.3 0.98,4.94c2.65,13.54 6.34,28.61 8.55,42.14z" fill="#005431" id="svg_15" opacity="0.2"/>
     <path d="m251.85,102.51s-18.61,16 -1.55,37.05s95.45,66 95.45,66l51.06,-13.8l14.45,2.64l2.73,-27.13l-21.29,2.08l-54.04,-11.51l-34.46,-27.96s-31.24,-40.69 -52.35,-27.37z" fill="#005431" id="svg_17"/>
     <polygon fill="#005431" id="svg_18" opacity="0.2" points="319.646 295.362 322.902 371.443 314.646 295.362 319.646 295.362"/>
    </g>
   </g>
   <use id="svg_119" transform="matrix(-0.893661, 0, 0, 0.887161, 773.414, 48.2304)" xlink:href="#svg_118"/>
  </g>
 </g>
</svg>