<?xml version="1.0"?>
<svg width="500" height="500" xmlns="http://www.w3.org/2000/svg" xmlns:svg="http://www.w3.org/2000/svg">
 <g class="layer">
  <title>Layer 1</title>
  <g id="svg_45" transform="translate(-1) translate(499.417, 498.263) scale(1.08767) translate(-499.417, -498.263)">
   <g id="svg_42" transform="translate(-11, 1) translate(152.568, 497.684) matrix(0.768473, 0, 0, 0.768473, -100.676, -381.014)">
    <path d="m129.52,460.53c-1.51,11.83 -7.06,22.64 -12.98,33.07c-0.2,0.35 -0.4,0.71 -0.6,1.06l-61.54,0c-1.24,-0.32 -2.47,-0.68 -3.69,-1.06a67.27,67.27 0 0 1 -19.43,-9.56c-22.64,-16.31 -31.35,-47.13 -27.42,-74.75c2.44,-17.16 9.98,-34.68 24.64,-43.92c7.74,-4.89 17.69,-6.48 26.6,-4.66c0.23,0.04 0.47,0.09 0.71,0.14c7.67,1.72 14.5,6.02 18.39,12.93c6.99,12.42 2.83,27.81 -0.61,41.62c-3.43,13.83 -5.28,30.36 4.66,40.56c-3.29,-9.66 -0.04,-21.19 7.8,-27.73c5.93,-4.93 14.18,-6.78 21.7,-5.25c0.72,0.16 1.43,0.32 2.13,0.54a23.62,23.62 0 0 1 4.85,2.03c11.73,6.55 16.48,21.64 14.79,34.97l-0.01,0.01z" fill="#f2f2f2" id="svg_1"/>
    <path d="m82.85,493.67c1.58,0.37 3.15,0.69 4.73,0.97l-8.58,0c-1.12,-0.3 -2.24,-0.62 -3.35,-0.97q-3.66,-1.14 -7.2,-2.62c-9.47,-3.98 -18.2,-9.94 -24.8,-17.88a50.47,50.47 0 0 1 -7.82,-12.78a58.03,58.03 0 0 1 -4.01,-16.35c-1.19,-11.52 0.02,-23.36 2.3,-34.68a144.73,144.73 0 0 1 11.31,-33.92q0.93,-1.94 1.92,-3.86a0.75,0.75 0 0 1 0.5,-0.43a0.87,0.87 0 0 1 0.65,0.13a1.03,1.03 0 0 1 0.4,1.36a143.07,143.07 0 0 0 -12,32.69c-2.6,11.07 -4.07,22.65 -3.57,34.03c0.48,10.63 3.26,21.09 9.56,29.78c5.76,7.94 13.71,14.2 22.5,18.46a82.57,82.57 0 0 0 17.43,6.05l0.01,0z" fill="#fff" id="svg_2"/>
    <path d="m107.97,494.65l-2.61,0c-0.29,-0.33 -0.57,-0.67 -0.85,-1.01a55.76,55.76 0 0 1 -11.73,-25.08a54.41,54.41 0 0 1 4.69,-33.86a55.68,55.68 0 0 1 5.07,-8.39c0.69,0.15 1.36,0.31 2.03,0.52a53.56,53.56 0 0 0 -9.98,22.9a53.08,53.08 0 0 0 12.5,43.93c0.29,0.34 0.59,0.68 0.9,1.01l-0.01,-0.01z" fill="#fff" id="svg_3"/>
   </g>
   <path d="m262.49,355.32l-90.96,0l-0.97,-27.97a8.4,8.4 0 0 1 9.41,-8.62l52.94,6.48l0,0a29.65,29.65 0 0 1 29.58,29.64l0,0.47z" fill="#ffffff" id="svg_7"/>
   <path d="m221.94,256.11l-63.44,0a6.43,6.43 0 0 0 -6.43,6.43l0,63.45a6.43,6.43 0 0 0 6.43,6.42l63.44,0a6.43,6.43 0 0 0 6.43,-6.42l0,-63.45a6.43,6.43 0 0 0 -6.43,-6.43z" fill="#005431" id="svg_8"/>
   <path d="m207.65,303.55l-29.95,5.84a6.83,6.83 0 0 1 -8.01,-5.4l-2.3,-11.82a6.83,6.83 0 0 1 5.4,-8.01l29.95,-5.83a6.83,6.83 0 0 1 8.01,5.39l2.3,11.82a6.83,6.83 0 0 1 -5.4,8.01z" fill="#005431" id="svg_9">#</path>
   <path d="m201.66,289.58l-22.86,4.45a1.6,1.6 0 0 1 -0.62,-3.16l22.86,-4.45a1.6,1.6 0 0 1 0.62,3.16z" fill="#ffffff" id="svg_10"/>
   <path d="m197.22,296.18l-11.82,2.3a1.6,1.6 0 0 1 -0.62,-3.16l11.82,-2.3a1.6,1.6 0 1 1 0.62,3.16z" fill="#ffffff" id="svg_11">#</path>
   <path d="m228.37,262.53l0,8.43l-76.29,0l0,-8.43a6.43,6.43 0 0 1 6.43,-6.43l63.44,0a6.43,6.43 0 0 1 6.43,6.43z" fill="#ffffff" id="svg_12"/>
   <path d="m380.71,273.61a10.18,10.18 0 0 0 -14.4,-6.04l-87.29,-31.31l-3.85,21.81l87.01,23.92a10.24,10.24 0 0 0 18.52,-8.38z" fill="#005431" id="svg_13"/>
   <path d="m378.1,273.61a10.18,10.18 0 0 0 -14.4,-6.04l-87.29,-31.31l-3.85,21.81l87.01,23.92a10.24,10.24 0 0 0 18.52,-8.38z" fill="#005431" id="svg_14" opacity="0.2"/>
   <path d="m294.53,240.23l-8.25,21.53a4.57,4.57 0 0 1 -6.5,2.35l-20.03,-11.28a12.68,12.68 0 0 1 9.14,-23.66l22.37,4.97a4.57,4.57 0 0 1 3.28,6.08z" fill="#005431" id="svg_15"/>
   <path d="m387.58,293.54l-31.27,14.22l4.1,15.47a240.48,240.48 0 0 1 6.2,91.6l0,0l22.87,4.77l18.95,-48.33l-6.63,-54.97l-14.22,-22.75z" fill="#ffffff" id="svg_16"/>
   <path d="m448.95,365.1c-20.55,0 -37.29,14.95 -38.11,33.64l76.22,0c-0.82,-18.7 -17.56,-33.64 -38.11,-33.64z" fill="#005431" id="svg_17"/>
   <path d="m432.95,368.33c-1.07,-84.44 -49.16,-76.68 -49.16,-76.68s0.9,26.29 1.34,27.1c30.64,57.98 -19.94,125.95 -84.31,113.45q-1.83,-0.35 -3.51,-0.72a32.77,32.77 0 0 1 -25.74,-36.73c6.34,-50.93 -25.2,-50.03 -25.2,-50.03l-46.13,0l-23.95,-21.55a6.97,6.97 0 0 0 -11.19,2.77l-3.08,8.36s-45.49,4.74 -41.7,49.28l14.06,0a28.4,28.4 0 0 0 0.15,3.79l104.96,-0.85c6.15,-0.05 11.58,4.94 11.61,11.09a11.14,11.14 0 0 1 -11.51,11.18l-16.93,-0.57c-5.21,23.22 7.58,38.86 21.67,48.69a78.8,78.8 0 0 0 45.13,13.86l45.97,0c59.71,0 70.13,-50.23 70.13,-50.23c31.27,-13.27 27.36,-52.21 27.36,-52.21z" fill="#005431" id="svg_18"/>
   <circle cx="600.26" cy="307.08" fill="#005431" id="svg_19" r="56.25" transform="matrix(0.706457, 0, 0, 0.706457, -44.8263, 236.92) matrix(1.34152, 0, 0, 1.34152, -110.337, -117.479)"/>
   <circle cx="600.26" cy="307.08" fill="#fff" id="svg_20" r="13.79" transform="matrix(0.706457, 0, 0, 0.706457, -44.8263, 236.92) matrix(1.34152, 0, 0, 1.34152, -110.337, -117.479)"/>
   <circle cx="316.26" cy="298.58" fill="#005431" id="svg_21" r="64.75" transform="matrix(0.706457, 0, 0, 0.706457, -44.8263, 236.92) matrix(1.34152, 0, 0, 1.34152, -110.337, -117.479)"/>
   <circle cx="316.26" cy="298.58" fill="#fff" id="svg_22" r="15.87" transform="matrix(0.706457, 0, 0, 0.706457, -44.8263, 236.92) matrix(1.34152, 0, 0, 1.34152, -110.337, -117.479)"/>
   <path d="m356.4,311.97l-11.25,-30.56a12.93,12.93 0 0 1 7.67,-16.59l32.26,-11.88a22.75,22.75 0 0 1 29.2,13.48a22.59,22.59 0 0 1 1.4,7.86a22.93,22.93 0 0 1 -8.52,17.75a22.57,22.57 0 0 1 -6.37,3.59l-44.39,16.36z" fill="#005431" id="svg_23"/>
   <path d="m415.2,274.27a22.32,22.32 0 0 1 -8.34,17.38a28.42,28.42 0 0 1 -18.67,-39.14a22.28,22.28 0 0 1 27.01,21.76z" fill="#ffffff" id="svg_24"/>
   <ellipse cx="265.01" cy="231.83" fill="#ffffff" id="svg_25" rx="14" ry="17" transform="matrix(0.706457, 0, 0, 0.706457, -44.8263, 236.92) matrix(1.34152, 0, 0, 1.34152, -110.337, -117.479)"/>
   <polygon fill="#ffb8b8" id="svg_26" points="303.7690510629327,430.6661885946414 315.3881294063176,430.6661885946414 320.9162475309204,400.5313330176068 303.76712688643966,400.532315575816 303.7690510629327,430.6661885946414"/>
   <path d="m300.8,426.87l22.89,0l0,0a14.59,14.59 0 0 1 14.58,14.58l0,0.47l-37.46,0l0,-15.05z" fill="#005431" id="svg_27"/>
   <path d="m317.25,418.29q-0.2,0 -0.41,-0.02l-16.08,-1.18a4.26,4.26 0 0 1 -3.6,-5.71l21.51,-48.34a3.32,3.32 0 0 0 -0.18,-2.65a3.27,3.27 0 0 0 -2.1,-1.67c-10.11,-2.64 -36.08,-9.69 -58.55,-17.93c-9.63,-3.53 -15.69,-8.63 -18.03,-15.16c-3.07,-8.61 1.47,-16.46 1.67,-16.79l0.15,-0.26l21.15,1.92l22.93,1.94l50.24,26.94a19.04,19.04 0 0 1 8.36,24.44l-23.16,51.94a4.26,4.26 0 0 1 -3.9,2.53z" fill="#005431" id="svg_28"/>
   <circle cx="410.71" cy="39.72" fill="#005431" id="svg_29" r="24.56" transform="matrix(0.706457, 0, 0, 0.706457, -44.8263, 236.92) matrix(1.34152, 0, 0, 1.34152, -110.337, -117.479)"/>
   <polygon fill="#005431" id="svg_30" points="297.1349817940063,433.5093435927847 308.7540601373912,433.5093435927847 314.282178261994,403.3745289556755 297.13305761751326,403.3754705739593 297.1349817940063,433.5093435927847"/>
   <path d="m294.17,429.71l22.89,0l0,0a14.59,14.59 0 0 1 14.58,14.58l0,0.47l-37.46,0l0,-15.05z" fill="#005431" id="svg_31"/>
   <path d="m310.62,421.14q-0.2,0 -0.41,-0.02l-16.08,-1.18a4.26,4.26 0 0 1 -3.6,-5.71l21.51,-48.34a3.32,3.32 0 0 0 -0.18,-2.65a3.27,3.27 0 0 0 -2.1,-1.67c-10.11,-2.64 -36.08,-9.69 -58.55,-17.93c-9.63,-3.53 -15.69,-8.63 -18.03,-15.16c-3.07,-8.61 1.47,-16.46 1.67,-16.79l0.15,-0.26l21.15,1.92l22.93,1.94l50.24,26.94a19.04,19.04 0 0 1 8.36,24.44l-23.16,51.94a4.26,4.26 0 0 1 -3.9,2.53z" fill="#005431" id="svg_32"/>
   <path d="m273.64,228.04l-24.64,-8.53s-15.47,11.88 -8.04,41.37a72.98,72.98 0 0 1 -3.22,45.79a47.18,47.18 0 0 1 -2.48,5.24s27.48,33.17 53.07,8.53l-9.95,-47.86s15.64,-31.75 -4.74,-44.54z" fill="#005431" id="svg_33"/>
   <path d="m269.35,215.63c-3.31,-4.96 -5.92,-11.84 -2.27,-16.55c3.6,-4.66 10.7,-3.97 16.22,-6.04c7.68,-2.87 12.13,-11.89 10.75,-19.97s-7.88,-14.78 -15.61,-17.52s-16.43,-1.85 -24.01,1.31c-9.32,3.89 -17.31,11.4 -20.66,20.92s-1.55,20.95 5.39,28.27c7.46,7.85 19.15,9.94 29.98,9.81" fill="#005431" id="svg_34"/>
   <path d="m247.7,173.33c-4.18,3.4 -10.55,1.89 -15.03,-1.09s-8.11,-7.23 -12.96,-9.57c-8.55,-4.12 -18.88,-1.38 -27.2,3.18s-15.69,10.87 -24.48,14.46s-20,3.75 -26.65,-3.01a24.38,24.38 0 0 0 35.74,28.79c9.62,-5.87 14.95,-18.17 25.74,-21.4c5.98,-1.79 12.4,-0.35 18.43,1.21s12.34,3.25 18.43,1.91s11.8,-6.8 11.02,-12.99l-3.04,-1.5z" fill="#005431" id="svg_35"/>
   <path d="m376.65,273.54a10.18,10.18 0 0 0 -15.03,-4.21l-90.48,-20.31l-1.13,22.11l89.29,13.01a10.24,10.24 0 0 0 17.34,-10.61z" fill="#005431" id="svg_36"/>
   <path d="m289.91,250.18l-5.53,22.39a4.57,4.57 0 0 1 -6.16,3.13l-21.28,-8.71a12.68,12.68 0 0 1 6.15,-24.6l22.8,2.16a4.57,4.57 0 0 1 4.01,5.64z" fill="#005431" id="svg_37"/>
   <circle cx="519.01" cy="136.83" fill="#ffffff" id="svg_38" r="7" transform="matrix(0.706457, 0, 0, 0.706457, -44.8263, 236.92) matrix(1.34152, 0, 0, 1.34152, -110.337, -117.479)"/>
   <text fill="#000000" font-family="Cursive" font-size="14.53" id="svg_40" stroke="null" stroke-dasharray="null" stroke-linecap="null" stroke-linejoin="null" stroke-opacity="null" stroke-width="0" text-anchor="middle" transform="matrix(0.706457, 0, 0, 0.706457, -44.8263, 236.92) matrix(1.34152, 0, 0, 1.34152, -110.337, -117.479)" x="329.9" xml:space="preserve" y="144.4"/>
  </g>
 </g>

</svg>