<svg xmlns="http://www.w3.org/2000/svg" xmlns:v="https://svgstorm.com"
viewBox = "0 0 273 326"
width="70"
height="70">
<g fill="None" fill-opacity="0.0" stroke="#000000" stroke-opacity="0.00" stroke-width="0.3"><path d="
M 0.00 88.00 
C 0.50 88.00 1.00 88.00 1.00 88.00
C 3.17 69.03 46.28 82.12 59.00 77.00
C 59.46 42.27 84.09 9.98 117.00 0.00
L 0.00 0.00
L 0.00 88.00 Z"/>
</g>
<g fill="None" fill-opacity="0.0" stroke="#074C35" stroke-opacity="0.99" stroke-width="0.3"><path d="
M 1.00 88.00 
C 1.45 89.31 1.00 91.61 1.00 93.00
C 1.00 96.67 1.00 100.33 1.00 104.00
C 1.00 106.00 1.00 108.00 1.00 110.00
C 1.00 113.83 1.82 118.99 0.00 122.00
L 0.00 218.00
C 1.69 219.77 1.00 223.48 1.00 226.00
C 1.00 228.67 1.00 231.33 1.00 234.00
C 1.00 238.17 1.82 243.66 0.00 247.00
L 0.00 252.00
C -3.94 284.85 16.48 320.00 50.00 326.00
L 179.00 326.00
C 182.09 324.23 187.16 325.00 191.00 325.00
C 198.33 325.00 205.67 325.00 213.00 325.00
C 243.27 325.00 265.15 308.07 273.00 279.00
L 273.00 219.00
C 271.57 217.97 271.31 213.96 273.00 213.00
L 273.00 121.00
C 271.23 117.91 272.00 112.84 272.00 109.00
C 272.00 104.83 271.18 99.34 273.00 96.00
L 273.00 94.00
C 271.62 92.66 271.62 89.05 272.00 87.00
C 271.09 69.03 224.78 80.99 214.00 76.00
C 212.15 41.89 187.10 10.34 155.00 0.00
L 117.00 0.00
C 84.09 9.98 59.46 42.27 59.00 77.00
C 46.28 82.12 3.17 69.03 1.00 88.00
M 140.00 11.00 
C 161.12 11.81 180.72 25.94 191.00 44.00
C 199.39 58.75 196.98 79.34 201.00 94.00 C 205.02 108.66 194.21 139.06 181.00 119.00
C 168.20 99.57 186.40 68.06 170.00 46.00
C 168.44 44.21 165.74 41.52 164.00 40.00
C 157.25 34.98 150.07 31.88 142.00 30.00
C 127.79 28.41 108.95 34.96 101.25 47.25 C 93.55 59.54 87.00 82.53 93.00 97.00 C 99.00 111.47 80.12 137.95 71.00 118.00
C 70.51 116.92 70.12 116.56 70.00 115.00
C 69.49 112.94 68.82 110.70 69.00 108.00
C 68.65 68.65 78.32 12.90 128.00 11.00
C 131.98 10.43 136.09 10.44 140.00 11.00
M 158.00 56.00 
C 160.32 58.94 162.00 61.45 163.00 65.00
C 163.79 67.81 164.48 71.53 164.00 75.00
C 145.33 75.00 126.67 75.00 108.00 75.00
C 104.69 47.74 142.13 34.56 158.00 56.00
M 120.00 89.00 
C 130.67 89.00 141.33 89.00 152.00 89.00
C 166.04 87.64 165.27 90.85 164.00 104.00
C 164.00 118.84 170.07 138.39 188.00 139.00
C 189.65 139.06 191.36 139.08 193.00 139.00
C 204.26 138.42 211.98 129.66 216.00 120.00
C 217.95 115.32 218.00 111.23 218.00 106.00
C 217.49 100.74 216.30 93.97 217.00 88.00
C 218.67 88.00 220.33 88.00 222.00 88.00
C 229.97 87.28 250.71 84.98 257.00 89.00
C 267.79 95.89 257.49 133.26 260.00 148.00 C 262.51 162.74 260.00 195.61 260.00 212.00
C 260.00 217.33 260.00 222.67 260.00 228.00
C 260.50 233.15 264.01 249.66 260.00 254.00
C 255.26 259.13 238.91 257.10 233.25 265.25 C 227.58 273.39 221.44 278.29 215.23 285.23 C 209.02 292.17 209.95 308.58 204.00 313.00
C 200.84 315.35 193.14 314.00 189.00 314.00
C 151.33 314.00 113.67 314.00 76.00 314.00
C 68.78 314.70 60.19 315.17 53.00 314.00
C 39.50 313.27 28.83 303.52 21.00 293.00
C 17.56 288.38 14.76 281.67 14.00 276.00
C 13.23 270.23 14.00 263.82 14.00 258.00
C 12.66 244.18 12.67 227.75 14.00 214.00
C 14.00 208.00 14.00 202.00 14.00 196.00
C 11.21 167.16 11.22 132.77 14.00 104.00
C 14.00 100.85 12.48 90.76 15.00 89.00
C 18.19 86.77 54.30 87.57 56.00 90.00
C 62.45 99.22 46.62 122.84 62.25 131.75 C 77.88 140.66 83.31 142.24 98.75 131.75 C 114.20 121.26 102.74 103.18 108.00 90.00
C 108.40 89.01 109.03 89.12 110.00 89.00
C 113.53 87.56 116.71 88.68 120.00 89.00
M 259.00 271.00 
C 259.73 292.01 244.65 314.46 222.00 314.00
C 224.27 294.68 239.35 274.95 259.00 271.00 Z"/>
</g>
<g fill="None" fill-opacity="0.0" stroke="#000000" stroke-opacity="0.00" stroke-width="0.3"><path d="
M 272.00 87.00 
C 272.00 87.03 273.00 87.00 273.00 87.00
L 273.00 0.00
L 155.00 0.00
C 187.10 10.34 212.15 41.89 214.00 76.00
C 224.78 80.99 271.09 69.03 272.00 87.00 Z"/>
</g>
<g fill="None" fill-opacity="0.0" stroke="#80998E" stroke-opacity="1.00" stroke-width="0.3"><path d="
M 128.00 11.00 
C 131.96 10.85 136.04 10.85 140.00 11.00
C 136.09 10.44 131.98 10.43 128.00 11.00 Z"/>
</g>
<g fill="None" fill-opacity="0.0" stroke="#F7FAF9" stroke-opacity="1.00" stroke-width="0.3"><path d="
M 69.00 108.00 
C 69.01 109.33 69.84 112.99 70.00 115.00
C 70.12 116.56 70.51 116.92 71.00 118.00
C 73.24 120.78 74.38 118.44 77.00 118.00
C 76.27 116.66 75.66 115.36 75.00 114.00
C 74.21 110.47 73.90 106.36 76.00 103.00
C 83.20 91.48 85.15 73.16 88.78 56.78 C 92.40 40.39 106.82 34.89 118.00 26.00
C 125.38 29.32 134.52 28.40 142.00 30.00
C 150.07 31.88 157.25 34.98 164.00 40.00
C 166.33 41.73 168.30 43.72 170.00 46.00
C 186.40 68.06 168.20 99.57 181.00 119.00
C 181.91 120.04 183.62 121.01 185.00 121.00
C 183.57 118.98 187.94 116.83 185.00 114.00
C 184.20 108.67 183.50 99.80 192.00 101.00
C 186.05 87.99 191.85 53.70 191.00 44.00
C 180.72 25.94 161.12 11.81 140.00 11.00
C 136.04 10.85 131.96 10.85 128.00 11.00
C 78.32 12.90 68.65 68.65 69.00 108.00 Z"/>
</g>
<g fill="None" fill-opacity="0.0" stroke="#C5DDCF" stroke-opacity="1.00" stroke-width="0.3"><path d="
M 76.00 103.00 
C 91.75 84.39 88.91 132.55 75.00 114.00
C 75.66 115.36 76.27 116.66 77.00 118.00
C 74.38 118.44 73.24 120.78 71.00 118.00
C 80.12 137.95 99.00 111.47 93.00 97.00 C 87.00 82.53 93.55 59.54 101.25 47.25 C 108.95 34.96 127.79 28.41 142.00 30.00
C 134.52 28.40 125.38 29.32 118.00 26.00
C 106.82 34.89 92.40 40.39 88.78 56.78 C 85.15 73.16 83.20 91.48 76.00 103.00 Z"/>
</g>
<g fill="None" fill-opacity="0.0" stroke="#7B9390" stroke-opacity="1.00" stroke-width="0.3"><path d="
M 170.00 46.00 
C 168.30 43.72 166.33 41.73 164.00 40.00
C 165.74 41.52 168.44 44.21 170.00 46.00 Z"/>
</g>
<g fill="None" fill-opacity="0.0" stroke="#C4D8CA" stroke-opacity="1.00" stroke-width="0.3"><path d="
M 192.00 101.00 
C 206.63 103.06 193.68 122.68 185.00 114.00
C 187.94 116.83 183.57 118.98 185.00 121.00
C 183.62 121.01 181.91 120.04 181.00 119.00
C 194.21 139.06 205.02 108.66 201.00 94.00 C 196.98 79.34 199.39 58.75 191.00 44.00
C 191.85 53.70 186.05 87.99 192.00 101.00 Z"/>
</g>
<g fill="None" fill-opacity="0.0" stroke="#000000" stroke-opacity="0.00" stroke-width="0.3"><path d="
M 163.00 65.00 
C 162.09 62.73 158.66 57.01 158.00 56.00
C 142.13 34.56 104.69 47.74 108.00 75.00
C 126.67 75.00 145.33 75.00 164.00 75.00
C 164.48 71.53 163.79 67.81 163.00 65.00 Z"/>
</g>
<g fill="None" fill-opacity="0.0" stroke="#93C3B2" stroke-opacity="0.44" stroke-width="0.3"><path d="
M 163.00 65.00 
C 162.00 61.45 160.32 58.94 158.00 56.00
C 158.66 57.01 162.09 62.73 163.00 65.00 Z"/>
</g>
<g fill="None" fill-opacity="0.0" stroke="#DAECD9" stroke-opacity="0.01" stroke-width="0.3"><path d="
M 273.00 94.00 
L 273.00 87.00
C 273.00 87.00 272.00 87.03 272.00 87.00
C 271.62 89.05 271.62 92.66 273.00 94.00 Z"/>
</g>
<g fill="None" fill-opacity="0.0" stroke="#C1CEC1" stroke-opacity="0.01" stroke-width="0.3"><path d="
M 0.00 93.00 
C 0.50 93.00 1.00 93.00 1.00 93.00
C 1.00 91.61 1.45 89.31 1.00 88.00
C 1.00 88.00 0.50 88.00 0.00 88.00
L 0.00 93.00 Z"/>
</g>
<g fill="None" fill-opacity="0.0" stroke="#326260" stroke-opacity="1.00" stroke-width="0.3"><path d="
M 110.00 89.00 
C 113.22 88.60 116.75 89.00 120.00 89.00
C 116.71 88.68 113.53 87.56 110.00 89.00 Z"/>
</g>
<g fill="None" fill-opacity="0.0" stroke="#85A8A1" stroke-opacity="1.00" stroke-width="0.3"><path d="
M 152.00 89.00 
C 153.99 89.00 156.01 88.92 158.00 89.00
C 160.00 89.08 162.00 88.94 164.00 89.00
C 164.00 94.00 164.00 99.00 164.00 104.00
C 165.27 90.85 166.04 87.64 152.00 89.00 Z"/>
</g>
<g fill="None" fill-opacity="0.0" stroke="#C5E6DD" stroke-opacity="1.00" stroke-width="0.3"><path d="
M 218.00 106.00 
C 218.00 101.55 215.44 88.55 222.00 89.00
C 221.97 89.00 222.00 88.00 222.00 88.00
C 220.33 88.00 218.67 88.00 217.00 88.00
C 216.30 93.97 217.49 100.74 218.00 106.00 Z"/>
</g>
<g fill="None" fill-opacity="0.0" stroke="#87A8A0" stroke-opacity="1.00" stroke-width="0.3"><path d="
M 222.00 89.00 
C 231.74 89.88 248.14 85.18 257.00 89.00
C 250.71 84.98 229.97 87.28 222.00 88.00
C 222.00 88.00 221.97 89.00 222.00 89.00 Z"/>
</g>
<g fill="None" fill-opacity="0.0" stroke="#FBFCFC" stroke-opacity="1.00" stroke-width="0.3"><path d="
M 14.00 104.00 
C 14.00 134.67 14.00 165.33 14.00 196.00
C 14.00 202.00 14.00 208.00 14.00 214.00
C 14.00 227.33 14.00 240.67 14.00 254.00
C 14.64 260.62 13.76 269.64 14.00 276.00
C 14.76 281.67 17.56 288.38 21.00 293.00
C 28.74 299.81 39.41 302.80 50.00 298.00
C 49.07 296.86 48.92 295.45 49.00 294.00
C 47.11 284.69 35.22 276.95 28.00 272.00
C 26.21 270.77 24.47 269.29 23.00 268.00
C 22.77 267.84 22.94 266.49 23.00 266.00
C 21.95 263.41 23.07 258.10 27.00 257.00
C 42.53 252.64 60.64 284.04 67.00 294.00
C 67.75 295.18 70.06 295.79 69.00 298.00
C 109.87 295.94 162.15 303.87 199.07 290.07 C 236.00 276.28 239.07 237.38 260.00 212.00
C 260.00 195.61 262.51 162.74 260.00 148.00 C 257.49 133.26 267.79 95.89 257.00 89.00
C 248.14 85.18 231.74 89.88 222.00 89.00
C 215.44 88.55 218.00 101.55 218.00 106.00
C 218.00 111.23 217.95 115.32 216.00 120.00
C 214.61 125.78 197.69 150.02 188.00 140.00
C 187.75 139.74 188.00 139.00 188.00 139.00
C 170.07 138.39 164.00 118.84 164.00 104.00
C 164.00 99.00 164.00 94.00 164.00 89.00
C 162.00 88.94 160.00 89.08 158.00 89.00
C 150.02 89.30 114.27 95.70 108.00 90.00
C 102.74 103.18 114.20 121.26 98.75 131.75 C 83.31 142.24 77.88 140.66 62.25 131.75 C 46.62 122.84 62.45 99.22 56.00 90.00
C 42.50 89.33 27.68 91.33 15.00 89.00
C 12.48 90.76 14.00 100.85 14.00 104.00
M 47.00 167.00 
C 50.11 173.42 44.20 187.91 49.00 193.00
C 53.41 192.53 58.33 193.19 62.00 194.00
C 65.62 194.80 67.18 194.15 68.00 198.00
C 68.32 199.52 68.32 202.48 68.00 204.00
C 66.91 209.06 37.74 205.60 39.00 204.00
C 39.24 203.69 39.00 203.00 39.00 203.00
C 36.43 199.53 38.00 190.54 38.00 186.00
C 38.00 181.67 38.00 177.33 38.00 173.00
C 38.00 170.44 37.25 166.75 39.00 165.00
C 40.15 162.66 44.95 164.71 47.00 164.00
C 47.00 165.00 47.00 166.00 47.00 167.00
M 91.00 166.00 
C 93.73 169.78 94.27 200.73 91.00 204.00
C 88.93 206.07 85.07 204.85 83.00 204.00
C 81.67 203.46 81.97 204.11 81.00 203.00
C 76.38 197.69 78.38 164.40 85.00 164.00
C 87.66 163.45 89.55 163.98 91.00 166.00
M 115.00 164.00 
C 119.23 171.26 121.93 181.57 127.00 187.00
C 128.23 178.68 134.89 172.15 137.00 164.00
C 140.66 164.38 144.75 163.08 148.00 165.00
C 141.78 171.80 137.54 205.96 126.00 205.00 C 114.45 204.03 110.39 171.66 104.00 164.00
C 107.67 164.00 111.33 164.00 115.00 164.00
M 178.00 165.00 
C 184.66 165.25 188.66 167.20 192.00 173.00
C 194.02 176.51 194.54 178.98 193.00 183.00
C 191.69 186.43 187.30 189.79 187.78 193.22 C 188.26 196.66 195.64 202.24 194.00 205.00
C 192.57 207.40 185.66 205.93 184.00 205.00
C 174.92 199.94 170.36 183.90 169.00 206.00
C 168.06 205.43 167.18 204.85 166.00 205.00
C 164.05 205.30 162.05 207.12 160.00 205.00
C 159.44 198.78 160.00 192.25 160.00 186.00
C 160.00 182.63 158.17 166.39 161.00 165.00
C 162.51 163.54 164.84 164.06 167.00 164.00
C 170.85 163.89 174.88 164.55 178.00 165.00
M 234.00 174.00 
C 233.14 173.79 231.89 174.00 231.00 174.00
C 227.27 174.82 222.41 175.47 218.00 175.00
C 217.25 176.19 218.57 178.69 218.00 180.00
C 220.67 180.00 223.33 180.00 226.00 180.00
C 228.12 180.04 231.72 179.18 233.00 181.00
C 240.18 191.26 216.06 190.80 219.26 193.75 C 222.46 196.69 247.24 190.80 238.00 204.00
C 236.71 205.84 232.15 205.00 230.00 205.00
C 223.00 205.00 216.00 205.00 209.00 205.00
C 209.00 203.33 209.00 201.67 209.00 200.00
C 207.33 193.17 208.35 184.72 209.00 178.00
C 209.00 173.33 209.00 168.67 209.00 164.00
C 218.33 164.00 227.67 164.00 237.00 164.00
C 240.66 166.56 238.50 175.08 234.00 174.00
M 169.00 253.00 
C 164.07 260.42 156.18 265.38 148.00 263.00
C 129.17 257.52 123.95 232.74 142.08 223.08 C 160.20 213.42 180.43 235.81 169.00 253.00
M 86.00 237.00 
C 87.05 238.11 88.80 239.13 90.00 240.00
C 96.12 233.07 100.06 219.13 112.00 222.00
C 112.00 223.67 112.00 225.33 112.00 227.00
C 112.25 229.27 112.00 231.71 112.00 234.00
C 112.48 239.08 116.14 256.86 112.00 261.00
C 101.21 271.79 101.88 246.08 100.00 243.00
C 97.41 248.02 92.02 253.46 87.00 256.00
C 85.55 251.78 80.72 249.45 80.00 245.00
C 78.74 244.73 78.29 243.14 77.00 243.00
C 74.36 249.05 80.24 262.92 71.00 263.00
C 69.79 262.91 68.50 261.24 67.00 262.00
C 65.43 249.55 64.91 234.70 68.00 223.00
C 73.20 215.92 82.97 233.78 86.00 237.00
M 192.00 259.00 
C 192.06 258.51 192.00 258.00 192.00 258.00
C 188.52 253.30 188.81 216.31 198.00 221.00 C 207.19 225.69 198.03 252.86 202.00 262.00
C 198.67 262.00 195.33 262.00 192.00 262.00
C 192.00 261.00 192.00 260.00 192.00 259.00 Z"/>
</g>
<g fill="None" fill-opacity="0.0" stroke="#D6F3ED" stroke-opacity="1.00" stroke-width="0.3"><path d="
M 56.00 90.00 
C 54.30 87.57 18.19 86.77 15.00 89.00
C 27.68 91.33 42.50 89.33 56.00 90.00 Z"/>
</g>
<g fill="None" fill-opacity="0.0" stroke="#E1FCF9" stroke-opacity="1.00" stroke-width="0.3"><path d="
M 108.00 90.00 
C 114.27 95.70 150.02 89.30 158.00 89.00
C 156.01 88.92 153.99 89.00 152.00 89.00
C 141.33 89.00 130.67 89.00 120.00 89.00
C 116.75 89.00 113.22 88.60 110.00 89.00
C 109.03 89.12 108.40 89.01 108.00 90.00 Z"/>
</g>
<g fill="None" fill-opacity="0.0" stroke="#235A4A" stroke-opacity="0.07" stroke-width="0.3"><path d="
M 0.00 104.00 
C 0.50 104.00 1.00 104.00 1.00 104.00
C 1.00 100.33 1.00 96.67 1.00 93.00
C 1.00 93.00 0.50 93.00 0.00 93.00
L 0.00 104.00 Z"/>
</g>
<g fill="None" fill-opacity="0.0" stroke="#225740" stroke-opacity="0.11" stroke-width="0.3"><path d="
M 272.00 109.00 
C 272.00 108.96 273.00 109.00 273.00 109.00
L 273.00 96.00
C 271.18 99.34 272.00 104.83 272.00 109.00 Z"/>
</g>
<g fill="None" fill-opacity="0.0" stroke="#1D4E34" stroke-opacity="1.00" stroke-width="0.3"><path d="
M 76.00 103.00 
C 73.90 106.36 74.21 110.47 75.00 114.00
C 88.91 132.55 91.75 84.39 76.00 103.00 Z"/>
</g>
<g fill="None" fill-opacity="0.0" stroke="#104327" stroke-opacity="1.00" stroke-width="0.3"><path d="
M 185.00 114.00 
C 193.68 122.68 206.63 103.06 192.00 101.00
C 183.50 99.80 184.20 108.67 185.00 114.00 Z"/>
</g>
<g fill="None" fill-opacity="0.0" stroke="#094F41" stroke-opacity="0.23" stroke-width="0.3"><path d="
M 0.00 110.00 
C 0.50 110.00 1.00 110.00 1.00 110.00
C 1.00 108.00 1.00 106.00 1.00 104.00
C 1.00 104.00 0.50 104.00 0.00 104.00
L 0.00 110.00 Z"/>
</g>
<g fill="None" fill-opacity="0.0" stroke="#6C9D84" stroke-opacity="1.00" stroke-width="0.3"><path d="
M 14.00 196.00 
C 14.00 165.33 14.00 134.67 14.00 104.00
C 11.22 132.77 11.21 167.16 14.00 196.00 Z"/>
</g>
<g fill="None" fill-opacity="0.0" stroke="#BCE0D0" stroke-opacity="1.00" stroke-width="0.3"><path d="
M 70.00 115.00 
C 69.84 112.99 69.01 109.33 69.00 108.00
C 68.82 110.70 69.49 112.94 70.00 115.00 Z"/>
</g>
<g fill="None" fill-opacity="0.0" stroke="#034E35" stroke-opacity="0.51" stroke-width="0.3"><path d="
M 273.00 121.00 
L 273.00 109.00
C 273.00 109.00 272.00 108.96 272.00 109.00
C 272.00 112.84 271.23 117.91 273.00 121.00 Z"/>
</g>
<g fill="None" fill-opacity="0.0" stroke="#045042" stroke-opacity="0.53" stroke-width="0.3"><path d="
M 0.00 122.00 
C 1.82 118.99 1.00 113.83 1.00 110.00
C 1.00 110.00 0.50 110.00 0.00 110.00
L 0.00 122.00 Z"/>
</g>
<g fill="None" fill-opacity="0.0" stroke="#CFEADD" stroke-opacity="1.00" stroke-width="0.3"><path d="
M 193.00 139.00 
C 191.70 139.28 189.98 140.63 188.00 140.00
C 197.69 150.02 214.61 125.78 216.00 120.00
C 211.98 129.66 204.26 138.42 193.00 139.00 Z"/>
</g>
<g fill="None" fill-opacity="0.0" stroke="#508361" stroke-opacity="1.00" stroke-width="0.3"><path d="
M 188.00 140.00 
C 189.98 140.63 191.70 139.28 193.00 139.00
C 191.36 139.08 189.65 139.06 188.00 139.00
C 188.00 139.00 187.75 139.74 188.00 140.00 Z"/>
</g>
<g fill="None" fill-opacity="0.0" stroke="#173631" stroke-opacity="1.00" stroke-width="0.3"><path d="
M 39.00 165.00 
C 38.71 165.59 39.00 167.33 39.00 168.00
C 40.20 165.67 45.26 165.23 47.00 167.00
C 47.00 166.00 47.00 165.00 47.00 164.00
C 44.95 164.71 40.15 162.66 39.00 165.00 Z"/>
</g>
<g fill="None" fill-opacity="0.0" stroke="#B6CDCC" stroke-opacity="1.00" stroke-width="0.3"><path d="
M 81.00 203.00 
C 79.36 198.89 79.09 166.95 82.00 165.00
C 81.87 165.09 85.22 163.95 85.00 164.00
C 78.38 164.40 76.38 197.69 81.00 203.00 Z"/>
</g>
<g fill="None" fill-opacity="0.0" stroke="#05432A" stroke-opacity="1.00" stroke-width="0.3"><path d="
M 82.00 165.00 
C 77.05 172.78 88.16 198.37 83.00 204.00
C 85.07 204.85 88.93 206.07 91.00 204.00
C 93.38 200.60 92.92 169.89 91.00 166.00
C 89.55 163.98 87.66 163.45 85.00 164.00
C 85.22 163.95 81.87 165.09 82.00 165.00 Z"/>
</g>
<g fill="None" fill-opacity="0.0" stroke="#0A4732" stroke-opacity="1.00" stroke-width="0.3"><path d="
M 115.00 164.00 
C 111.33 164.00 107.67 164.00 104.00 164.00
C 110.39 171.66 114.45 204.03 126.00 205.00 C 137.54 205.96 141.78 171.80 148.00 165.00
C 144.75 163.08 140.66 164.38 137.00 164.00
C 134.89 172.15 128.23 178.68 127.00 187.00
C 121.93 181.57 119.23 171.26 115.00 164.00 Z"/>
</g>
<g fill="None" fill-opacity="0.0" stroke="#7BA5A2" stroke-opacity="1.00" stroke-width="0.3"><path d="
M 161.00 165.00 
C 161.60 164.71 163.32 165.00 164.00 165.00
C 165.00 165.00 166.00 165.00 167.00 165.00
C 167.25 164.73 167.00 164.00 167.00 164.00
C 164.84 164.06 162.51 163.54 161.00 165.00 Z"/>
</g>
<g fill="None" fill-opacity="0.0" stroke="#4A817C" stroke-opacity="1.00" stroke-width="0.3"><path d="
M 167.00 165.00 
C 170.66 165.00 174.35 164.86 178.00 165.00
C 174.88 164.55 170.85 163.89 167.00 164.00
C 167.00 164.00 167.25 164.73 167.00 165.00 Z"/>
</g>
<g fill="None" fill-opacity="0.0" stroke="#0B472F" stroke-opacity="1.00" stroke-width="0.3"><path d="
M 209.00 178.00 
C 209.00 185.16 208.14 192.90 209.00 200.00
C 209.00 201.67 209.00 203.33 209.00 205.00
C 216.00 205.00 223.00 205.00 230.00 205.00
C 231.95 204.81 235.34 203.07 238.00 204.00
C 247.24 190.80 222.46 196.69 219.26 193.75 C 216.06 190.80 240.18 191.26 233.00 181.00
C 230.66 181.98 227.57 180.15 226.00 180.00
C 223.33 180.00 220.67 180.00 218.00 180.00
C 218.57 178.69 217.25 176.19 218.00 175.00
C 219.47 172.67 228.29 174.00 231.00 174.00
C 231.89 174.00 233.14 173.79 234.00 174.00
C 235.00 173.95 236.00 174.04 237.00 174.00
C 237.00 170.67 237.00 167.33 237.00 164.00
C 227.67 164.00 218.33 164.00 209.00 164.00
C 209.00 168.67 209.00 173.33 209.00 178.00 Z"/>
</g>
<g fill="None" fill-opacity="0.0" stroke="#AFDBD4" stroke-opacity="1.00" stroke-width="0.3"><path d="
M 234.00 174.00 
C 238.50 175.08 240.66 166.56 237.00 164.00
C 237.00 167.33 237.00 170.67 237.00 174.00
C 236.00 174.04 235.00 173.95 234.00 174.00 Z"/>
</g>
<g fill="None" fill-opacity="0.0" stroke="#63847A" stroke-opacity="1.00" stroke-width="0.3"><path d="
M 38.00 173.00 
C 38.17 171.75 39.01 169.89 39.00 168.00
C 39.00 167.33 38.71 165.59 39.00 165.00
C 37.25 166.75 38.00 170.44 38.00 173.00 Z"/>
</g>
<g fill="None" fill-opacity="0.0" stroke="#1C423D" stroke-opacity="1.00" stroke-width="0.3"><path d="
M 81.00 203.00 
C 81.97 204.11 81.67 203.46 83.00 204.00
C 88.16 198.37 77.05 172.78 82.00 165.00
C 79.09 166.95 79.36 198.89 81.00 203.00 Z"/>
</g>
<g fill="None" fill-opacity="0.0" stroke="#0E3731" stroke-opacity="1.00" stroke-width="0.3"><path d="
M 160.00 186.00 
C 160.17 187.47 160.94 189.90 161.00 192.00
C 161.84 183.32 164.19 174.27 164.00 165.00
C 163.32 165.00 161.60 164.71 161.00 165.00
C 158.17 166.39 160.00 182.63 160.00 186.00 Z"/>
</g>
<g fill="None" fill-opacity="0.0" stroke="#05442B" stroke-opacity="1.00" stroke-width="0.3"><path d="
M 161.00 192.00 
C 161.12 196.23 161.38 200.78 161.00 205.00
C 162.67 205.00 164.33 204.99 166.00 205.00
C 167.18 204.85 168.06 205.43 169.00 206.00
C 170.36 183.90 174.92 199.94 184.00 205.00
C 186.93 206.08 190.97 204.19 194.00 205.00
C 195.64 202.24 188.26 196.66 187.78 193.22 C 187.30 189.79 191.69 186.43 193.00 183.00
C 193.72 179.89 193.09 175.77 192.00 173.00
C 188.66 167.20 184.66 165.25 178.00 165.00
C 174.35 164.86 170.66 165.00 167.00 165.00
C 166.00 165.00 165.00 165.00 164.00 165.00
C 164.19 174.27 161.84 183.32 161.00 192.00
M 170.00 183.00 
C 169.97 162.18 195.88 187.49 170.00 183.00 Z"/>
</g>
<g fill="None" fill-opacity="0.0" stroke="#06472F" stroke-opacity="1.00" stroke-width="0.3"><path d="
M 39.00 168.00 
C 39.01 169.89 38.17 171.75 38.00 173.00
C 38.00 177.33 38.00 181.67 38.00 186.00
C 38.49 191.04 39.00 197.27 39.00 203.00
C 39.00 203.00 39.24 203.69 39.00 204.00
C 41.74 206.83 64.00 206.22 67.00 204.00
C 66.54 202.07 68.12 198.91 68.00 198.00
C 67.18 194.15 65.62 194.80 62.00 194.00
C 58.51 193.64 51.38 195.52 49.00 193.00
C 44.20 187.91 50.11 173.42 47.00 167.00
C 45.26 165.23 40.20 165.67 39.00 168.00 Z"/>
</g>
<g fill="None" fill-opacity="0.0" stroke="#A6CEB9" stroke-opacity="1.00" stroke-width="0.3"><path d="
M 91.00 204.00 
C 94.27 200.73 93.73 169.78 91.00 166.00
C 92.92 169.89 93.38 200.60 91.00 204.00 Z"/>
</g>
<g fill="None" fill-opacity="0.0" stroke="#C5ECDD" stroke-opacity="1.00" stroke-width="0.3"><path d="
M 193.00 183.00 
C 194.54 178.98 194.02 176.51 192.00 173.00
C 193.09 175.77 193.72 179.89 193.00 183.00 Z"/>
</g>
<g fill="None" fill-opacity="0.0" stroke="#2E5B62" stroke-opacity="1.00" stroke-width="0.3"><path d="
M 218.00 175.00 
C 222.41 175.47 227.27 174.82 231.00 174.00
C 228.29 174.00 219.47 172.67 218.00 175.00 Z"/>
</g>
<g fill="None" fill-opacity="0.0" stroke="#E3F2F0" stroke-opacity="1.00" stroke-width="0.3"><path d="
M 170.00 183.00 
C 195.88 187.49 169.97 162.18 170.00 183.00 Z"/>
</g>
<g fill="None" fill-opacity="0.0" stroke="#699185" stroke-opacity="1.00" stroke-width="0.3"><path d="
M 209.00 200.00 
C 208.14 192.90 209.00 185.16 209.00 178.00
C 208.35 184.72 207.33 193.17 209.00 200.00 Z"/>
</g>
<g fill="None" fill-opacity="0.0" stroke="#8EB3B9" stroke-opacity="1.00" stroke-width="0.3"><path d="
M 233.00 181.00 
C 231.72 179.18 228.12 180.04 226.00 180.00
C 227.57 180.15 230.66 181.98 233.00 181.00 Z"/>
</g>
<g fill="None" fill-opacity="0.0" stroke="#83AA9E" stroke-opacity="1.00" stroke-width="0.3"><path d="
M 39.00 203.00 
C 39.00 197.27 38.49 191.04 38.00 186.00
C 38.00 190.54 36.43 199.53 39.00 203.00 Z"/>
</g>
<g fill="None" fill-opacity="0.0" stroke="#3C716A" stroke-opacity="1.00" stroke-width="0.3"><path d="
M 160.00 205.00 
C 160.00 205.04 161.00 205.00 161.00 205.00
C 161.38 200.78 161.12 196.23 161.00 192.00
C 160.94 189.90 160.17 187.47 160.00 186.00
C 160.00 192.25 159.44 198.78 160.00 205.00 Z"/>
</g>
<g fill="None" fill-opacity="0.0" stroke="#C7E9D8" stroke-opacity="1.00" stroke-width="0.3"><path d="
M 62.00 194.00 
C 58.33 193.19 53.41 192.53 49.00 193.00
C 51.38 195.52 58.51 193.64 62.00 194.00 Z"/>
</g>
<g fill="None" fill-opacity="0.0" stroke="#5B8F88" stroke-opacity="1.00" stroke-width="0.3"><path d="
M 67.00 204.00 
C 67.32 203.76 68.00 204.00 68.00 204.00
C 68.32 202.48 68.32 199.52 68.00 198.00
C 68.12 198.91 66.54 202.07 67.00 204.00 Z"/>
</g>
<g fill="None" fill-opacity="0.0" stroke="#DAFAF2" stroke-opacity="1.00" stroke-width="0.3"><path d="
M 68.00 204.00 
C 68.00 204.00 67.32 203.76 67.00 204.00
C 64.00 206.22 41.74 206.83 39.00 204.00
C 37.74 205.60 66.91 209.06 68.00 204.00 Z"/>
</g>
<g fill="None" fill-opacity="0.0" stroke="#7C9D91" stroke-opacity="1.00" stroke-width="0.3"><path d="
M 230.00 205.00 
C 232.15 205.00 236.71 205.84 238.00 204.00
C 235.34 203.07 231.95 204.81 230.00 205.00 Z"/>
</g>
<g fill="None" fill-opacity="0.0" stroke="#B7DED1" stroke-opacity="1.00" stroke-width="0.3"><path d="
M 166.00 205.00 
C 164.33 204.99 162.67 205.00 161.00 205.00
C 161.00 205.00 160.00 205.04 160.00 205.00
C 162.05 207.12 164.05 205.30 166.00 205.00 Z"/>
</g>
<g fill="None" fill-opacity="0.0" stroke="#C5F0E5" stroke-opacity="1.00" stroke-width="0.3"><path d="
M 194.00 205.00 
C 190.97 204.19 186.93 206.08 184.00 205.00
C 185.66 205.93 192.57 207.40 194.00 205.00 Z"/>
</g>
<g fill="None" fill-opacity="0.0" stroke="#C9DECE" stroke-opacity="1.00" stroke-width="0.3"><path d="
M 67.00 294.00 
C 70.50 305.72 52.83 302.68 50.00 294.00
C 49.95 293.85 49.00 294.00 49.00 294.00
C 48.92 295.45 49.07 296.86 50.00 298.00
C 39.41 302.80 28.74 299.81 21.00 293.00
C 28.83 303.52 39.50 313.27 53.00 314.00
C 60.62 314.41 68.37 314.00 76.00 314.00
C 113.67 314.00 151.33 314.00 189.00 314.00
C 191.72 313.74 201.34 314.36 204.00 313.00
C 209.95 308.58 209.02 292.17 215.23 285.23 C 221.44 278.29 227.58 273.39 233.25 265.25 C 238.91 257.10 255.26 259.13 260.00 254.00
C 262.87 249.56 260.00 233.50 260.00 228.00
C 260.00 222.67 260.00 217.33 260.00 212.00
C 239.07 237.38 236.00 276.28 199.07 290.07 C 162.15 303.87 109.87 295.94 69.00 298.00
C 70.06 295.79 67.75 295.18 67.00 294.00 Z"/>
</g>
<g fill="None" fill-opacity="0.0" stroke="#004D31" stroke-opacity="0.77" stroke-width="0.3"><path d="
M 273.00 219.00 
L 273.00 213.00
C 271.31 213.96 271.57 217.97 273.00 219.00 Z"/>
</g>
<g fill="None" fill-opacity="0.0" stroke="#629580" stroke-opacity="1.00" stroke-width="0.3"><path d="
M 14.00 258.00 
C 14.00 256.67 14.00 255.33 14.00 254.00
C 14.00 240.67 14.00 227.33 14.00 214.00
C 12.67 227.75 12.66 244.18 14.00 258.00 Z"/>
</g>
<g fill="None" fill-opacity="0.0" stroke="#064B35" stroke-opacity="0.60" stroke-width="0.3"><path d="
M 0.00 226.00 
C 0.50 226.00 1.00 226.00 1.00 226.00
C 1.00 223.48 1.69 219.77 0.00 218.00
L 0.00 226.00 Z"/>
</g>
<g fill="None" fill-opacity="0.0" stroke="#094331" stroke-opacity="1.00" stroke-width="0.3"><path d="
M 148.00 263.00 
C 155.70 263.94 164.30 259.02 169.00 253.00
C 180.43 235.81 160.20 213.42 142.08 223.08 C 123.95 232.74 129.17 257.52 148.00 263.00
M 155.00 233.00 
C 165.18 236.21 159.79 254.38 147.93 250.07 C 136.07 245.77 143.19 229.27 155.00 233.00 Z"/>
</g>
<g fill="None" fill-opacity="0.0" stroke="#0A5038" stroke-opacity="1.00" stroke-width="0.3"><path d="
M 68.00 223.00 
C 71.61 228.55 61.90 260.39 71.00 263.00
C 80.24 262.92 74.36 249.05 77.00 243.00
C 78.29 243.14 78.74 244.73 80.00 245.00
C 84.98 246.07 87.73 242.82 86.00 237.00
C 82.97 233.78 73.20 215.92 68.00 223.00 Z"/>
</g>
<g fill="None" fill-opacity="0.0" stroke="#0B352A" stroke-opacity="1.00" stroke-width="0.3"><path d="
M 192.00 258.00 
C 195.10 251.43 189.71 220.64 198.29 224.71 C 206.88 228.77 197.07 269.19 192.00 259.00
C 192.00 260.00 192.00 261.00 192.00 262.00
C 195.33 262.00 198.67 262.00 202.00 262.00
C 198.03 252.86 207.19 225.69 198.00 221.00 C 188.81 216.31 188.52 253.30 192.00 258.00 Z"/>
</g>
<g fill="None" fill-opacity="0.0" stroke="#0B3A2E" stroke-opacity="1.00" stroke-width="0.3"><path d="
M 86.00 237.00 
C 87.73 242.82 84.98 246.07 80.00 245.00
C 80.72 249.45 85.55 251.78 87.00 256.00
C 92.02 253.46 97.41 248.02 100.00 243.00
C 101.88 246.08 101.21 271.79 112.00 261.00
C 92.80 266.27 107.81 214.73 112.00 227.00
C 112.00 225.33 112.00 223.67 112.00 222.00
C 100.06 219.13 96.12 233.07 90.00 240.00
C 88.80 239.13 87.05 238.11 86.00 237.00 Z"/>
</g>
<g fill="None" fill-opacity="0.0" stroke="#294F4C" stroke-opacity="1.00" stroke-width="0.3"><path d="
M 71.00 263.00 
C 61.90 260.39 71.61 228.55 68.00 223.00
C 64.91 234.70 65.43 249.55 67.00 262.00
C 68.50 261.24 69.79 262.91 71.00 263.00 Z"/>
</g>
<g fill="None" fill-opacity="0.0" stroke="#014832" stroke-opacity="1.00" stroke-width="0.3"><path d="
M 192.00 258.00 
C 192.00 258.00 192.06 258.51 192.00 259.00
C 197.07 269.19 206.88 228.77 198.29 224.71 C 189.71 220.64 195.10 251.43 192.00 258.00 Z"/>
</g>
<g fill="None" fill-opacity="0.0" stroke="#034C28" stroke-opacity="1.00" stroke-width="0.3"><path d="
M 112.00 261.00 
C 112.00 252.00 112.00 243.00 112.00 234.00
C 112.00 231.71 112.25 229.27 112.00 227.00
C 107.81 214.73 92.80 266.27 112.00 261.00 Z"/>
</g>
<g fill="None" fill-opacity="0.0" stroke="#0C4C3C" stroke-opacity="0.32" stroke-width="0.3"><path d="
M 0.00 234.00 
C 0.50 234.00 1.00 234.00 1.00 234.00
C 1.00 231.33 1.00 228.67 1.00 226.00
C 1.00 226.00 0.50 226.00 0.00 226.00
L 0.00 234.00 Z"/>
</g>
<g fill="None" fill-opacity="0.0" stroke="#558A7B" stroke-opacity="1.00" stroke-width="0.3"><path d="
M 260.00 254.00 
C 264.01 249.66 260.50 233.15 260.00 228.00
C 260.00 233.50 262.87 249.56 260.00 254.00 Z"/>
</g>
<g fill="None" fill-opacity="0.0" stroke="#F1F7F6" stroke-opacity="1.00" stroke-width="0.3"><path d="
M 155.00 233.00 
C 143.19 229.27 136.07 245.77 147.93 250.07 C 159.79 254.38 165.18 236.21 155.00 233.00 Z"/>
</g>
<g fill="None" fill-opacity="0.0" stroke="#1F5449" stroke-opacity="0.09" stroke-width="0.3"><path d="
M 0.00 247.00 
C 1.82 243.66 1.00 238.17 1.00 234.00
C 1.00 234.00 0.50 234.00 0.00 234.00
L 0.00 247.00 Z"/>
</g>
<g fill="None" fill-opacity="0.0" stroke="#7DA48B" stroke-opacity="1.00" stroke-width="0.3"><path d="
M 112.00 261.00 
C 116.14 256.86 112.48 239.08 112.00 234.00
C 112.00 243.00 112.00 252.00 112.00 261.00 Z"/>
</g>
<g fill="None" fill-opacity="0.0" stroke="#000000" stroke-opacity="0.00" stroke-width="0.3"><path d="
M 0.00 326.00 
L 50.00 326.00
C 16.48 320.00 -3.94 284.85 0.00 252.00
L 0.00 326.00 Z"/>
</g>
<g fill="None" fill-opacity="0.0" stroke="#C2E3D9" stroke-opacity="1.00" stroke-width="0.3"><path d="
M 148.00 263.00 
C 156.18 265.38 164.07 260.42 169.00 253.00
C 164.30 259.02 155.70 263.94 148.00 263.00 Z"/>
</g>
<g fill="None" fill-opacity="0.0" stroke="#D4F0E8" stroke-opacity="1.00" stroke-width="0.3"><path d="
M 14.00 258.00 
C 14.00 263.82 13.23 270.23 14.00 276.00
C 13.76 269.64 14.64 260.62 14.00 254.00
C 14.00 255.33 14.00 256.67 14.00 258.00 Z"/>
</g>
<g fill="None" fill-opacity="0.0" stroke="#7FA48E" stroke-opacity="1.00" stroke-width="0.3"><path d="
M 23.00 266.00 
C 23.25 264.02 24.82 257.92 27.00 257.00
C 23.07 258.10 21.95 263.41 23.00 266.00 Z"/>
</g>
<g fill="None" fill-opacity="0.0" stroke="#0E4C34" stroke-opacity="1.00" stroke-width="0.3"><path d="
M 23.00 266.00 
C 22.94 266.49 22.77 267.84 23.00 268.00
C 23.34 268.23 24.00 268.00 24.00 268.00
C 29.05 264.10 52.00 286.60 50.00 294.00
C 52.83 302.68 70.50 305.72 67.00 294.00
C 60.64 284.04 42.53 252.64 27.00 257.00
C 24.82 257.92 23.25 264.02 23.00 266.00 Z"/>
</g>
<g fill="None" fill-opacity="0.0" stroke="#1D4038" stroke-opacity="1.00" stroke-width="0.3"><path d="
M 24.00 268.00 
C 25.89 268.92 26.62 270.79 28.00 272.00
C 35.22 276.95 47.11 284.69 49.00 294.00
C 49.00 294.00 49.95 293.85 50.00 294.00
C 52.00 286.60 29.05 264.10 24.00 268.00 Z"/>
</g>
<g fill="None" fill-opacity="0.0" stroke="#86A3A7" stroke-opacity="1.00" stroke-width="0.3"><path d="
M 28.00 272.00 
C 26.62 270.79 25.89 268.92 24.00 268.00
C 24.00 268.00 23.34 268.23 23.00 268.00
C 24.47 269.29 26.21 270.77 28.00 272.00 Z"/>
</g>
<g fill="None" fill-opacity="0.0" stroke="#AFD1B8" stroke-opacity="1.00" stroke-width="0.3"><path d="
M 259.00 271.00 
C 239.35 274.95 224.27 294.68 222.00 314.00
C 244.65 314.46 259.73 292.01 259.00 271.00 Z"/>
</g>
<g fill="None" fill-opacity="0.0" stroke="#000000" stroke-opacity="0.00" stroke-width="0.3"><path d="
M 213.00 325.00 
C 213.04 325.00 213.00 326.00 213.00 326.00
L 273.00 326.00
L 273.00 279.00
C 265.15 308.07 243.27 325.00 213.00 325.00 Z"/>
</g>
<g fill="None" fill-opacity="0.0" stroke="#689E88" stroke-opacity="1.00" stroke-width="0.3"><path d="
M 189.00 314.00 
C 193.14 314.00 200.84 315.35 204.00 313.00
C 201.34 314.36 191.72 313.74 189.00 314.00 Z"/>
</g>
<g fill="None" fill-opacity="0.0" stroke="#01291C" stroke-opacity="1.00" stroke-width="0.3"><path d="
M 76.00 314.00 
C 68.37 314.00 60.62 314.41 53.00 314.00
C 60.19 315.17 68.78 314.70 76.00 314.00 Z"/>
</g>
<g fill="None" fill-opacity="0.0" stroke="#064B39" stroke-opacity="0.53" stroke-width="0.3"><path d="
M 179.00 326.00 
L 191.00 326.00
C 191.00 325.50 191.00 325.00 191.00 325.00
C 187.16 325.00 182.09 324.23 179.00 326.00 Z"/>
</g>
<g fill="None" fill-opacity="0.0" stroke="#3A6B5A" stroke-opacity="0.10" stroke-width="0.3"><path d="
M 191.00 326.00 
L 213.00 326.00
C 213.00 326.00 213.04 325.00 213.00 325.00
C 205.67 325.00 198.33 325.00 191.00 325.00
C 191.00 325.00 191.00 325.50 191.00 326.00 Z"/>
</g>
<g fill="#000000" fill-opacity="0.00" stroke="None">
<path d="
M 0.00 88.00 
C 0.50 88.00 1.00 88.00 1.00 88.00
C 3.17 69.03 46.28 82.12 59.00 77.00
C 59.46 42.27 84.09 9.98 117.00 0.00
L 0.00 0.00
L 0.00 88.00 Z"/>
</g>
<g fill="#074C35" fill-opacity="0.99" stroke="None">
<path d="
M 1.00 88.00 
C 1.45 89.31 1.00 91.61 1.00 93.00
C 1.00 96.67 1.00 100.33 1.00 104.00
C 1.00 106.00 1.00 108.00 1.00 110.00
C 1.00 113.83 1.82 118.99 0.00 122.00
L 0.00 218.00
C 1.69 219.77 1.00 223.48 1.00 226.00
C 1.00 228.67 1.00 231.33 1.00 234.00
C 1.00 238.17 1.82 243.66 0.00 247.00
L 0.00 252.00
C -3.94 284.85 16.48 320.00 50.00 326.00
L 179.00 326.00
C 182.09 324.23 187.16 325.00 191.00 325.00
C 198.33 325.00 205.67 325.00 213.00 325.00
C 243.27 325.00 265.15 308.07 273.00 279.00
L 273.00 219.00
C 271.57 217.97 271.31 213.96 273.00 213.00
L 273.00 121.00
C 271.23 117.91 272.00 112.84 272.00 109.00
C 272.00 104.83 271.18 99.34 273.00 96.00
L 273.00 94.00
C 271.62 92.66 271.62 89.05 272.00 87.00
C 271.09 69.03 224.78 80.99 214.00 76.00
C 212.15 41.89 187.10 10.34 155.00 0.00
L 117.00 0.00
C 84.09 9.98 59.46 42.27 59.00 77.00
C 46.28 82.12 3.17 69.03 1.00 88.00
M 140.00 11.00 
C 161.12 11.81 180.72 25.94 191.00 44.00
C 199.39 58.75 196.98 79.34 201.00 94.00 C 205.02 108.66 194.21 139.06 181.00 119.00
C 168.20 99.57 186.40 68.06 170.00 46.00
C 168.44 44.21 165.74 41.52 164.00 40.00
C 157.25 34.98 150.07 31.88 142.00 30.00
C 127.79 28.41 108.95 34.96 101.25 47.25 C 93.55 59.54 87.00 82.53 93.00 97.00 C 99.00 111.47 80.12 137.95 71.00 118.00
C 70.51 116.92 70.12 116.56 70.00 115.00
C 69.49 112.94 68.82 110.70 69.00 108.00
C 68.65 68.65 78.32 12.90 128.00 11.00
C 131.98 10.43 136.09 10.44 140.00 11.00
M 158.00 56.00 
C 160.32 58.94 162.00 61.45 163.00 65.00
C 163.79 67.81 164.48 71.53 164.00 75.00
C 145.33 75.00 126.67 75.00 108.00 75.00
C 104.69 47.74 142.13 34.56 158.00 56.00
M 120.00 89.00 
C 130.67 89.00 141.33 89.00 152.00 89.00
C 166.04 87.64 165.27 90.85 164.00 104.00
C 164.00 118.84 170.07 138.39 188.00 139.00
C 189.65 139.06 191.36 139.08 193.00 139.00
C 204.26 138.42 211.98 129.66 216.00 120.00
C 217.95 115.32 218.00 111.23 218.00 106.00
C 217.49 100.74 216.30 93.97 217.00 88.00
C 218.67 88.00 220.33 88.00 222.00 88.00
C 229.97 87.28 250.71 84.98 257.00 89.00
C 267.79 95.89 257.49 133.26 260.00 148.00 C 262.51 162.74 260.00 195.61 260.00 212.00
C 260.00 217.33 260.00 222.67 260.00 228.00
C 260.50 233.15 264.01 249.66 260.00 254.00
C 255.26 259.13 238.91 257.10 233.25 265.25 C 227.58 273.39 221.44 278.29 215.23 285.23 C 209.02 292.17 209.95 308.58 204.00 313.00
C 200.84 315.35 193.14 314.00 189.00 314.00
C 151.33 314.00 113.67 314.00 76.00 314.00
C 68.78 314.70 60.19 315.17 53.00 314.00
C 39.50 313.27 28.83 303.52 21.00 293.00
C 17.56 288.38 14.76 281.67 14.00 276.00
C 13.23 270.23 14.00 263.82 14.00 258.00
C 12.66 244.18 12.67 227.75 14.00 214.00
C 14.00 208.00 14.00 202.00 14.00 196.00
C 11.21 167.16 11.22 132.77 14.00 104.00
C 14.00 100.85 12.48 90.76 15.00 89.00
C 18.19 86.77 54.30 87.57 56.00 90.00
C 62.45 99.22 46.62 122.84 62.25 131.75 C 77.88 140.66 83.31 142.24 98.75 131.75 C 114.20 121.26 102.74 103.18 108.00 90.00
C 108.40 89.01 109.03 89.12 110.00 89.00
C 113.53 87.56 116.71 88.68 120.00 89.00
M 259.00 271.00 
C 259.73 292.01 244.65 314.46 222.00 314.00
C 224.27 294.68 239.35 274.95 259.00 271.00 Z"/>
</g>
<g fill="#000000" fill-opacity="0.00" stroke="None">
<path d="
M 272.00 87.00 
C 272.00 87.03 273.00 87.00 273.00 87.00
L 273.00 0.00
L 155.00 0.00
C 187.10 10.34 212.15 41.89 214.00 76.00
C 224.78 80.99 271.09 69.03 272.00 87.00 Z"/>
</g>
<g fill="#80998E" fill-opacity="1.00" stroke="None">
<path d="
M 128.00 11.00 
C 131.96 10.85 136.04 10.85 140.00 11.00
C 136.09 10.44 131.98 10.43 128.00 11.00 Z"/>
</g>
<g fill="#F7FAF9" fill-opacity="1.00" stroke="None">
<path d="
M 69.00 108.00 
C 69.01 109.33 69.84 112.99 70.00 115.00
C 70.12 116.56 70.51 116.92 71.00 118.00
C 73.24 120.78 74.38 118.44 77.00 118.00
C 76.27 116.66 75.66 115.36 75.00 114.00
C 74.21 110.47 73.90 106.36 76.00 103.00
C 83.20 91.48 85.15 73.16 88.78 56.78 C 92.40 40.39 106.82 34.89 118.00 26.00
C 125.38 29.32 134.52 28.40 142.00 30.00
C 150.07 31.88 157.25 34.98 164.00 40.00
C 166.33 41.73 168.30 43.72 170.00 46.00
C 186.40 68.06 168.20 99.57 181.00 119.00
C 181.91 120.04 183.62 121.01 185.00 121.00
C 183.57 118.98 187.94 116.83 185.00 114.00
C 184.20 108.67 183.50 99.80 192.00 101.00
C 186.05 87.99 191.85 53.70 191.00 44.00
C 180.72 25.94 161.12 11.81 140.00 11.00
C 136.04 10.85 131.96 10.85 128.00 11.00
C 78.32 12.90 68.65 68.65 69.00 108.00 Z"/>
</g>
<g fill="#C5DDCF" fill-opacity="1.00" stroke="None">
<path d="
M 76.00 103.00 
C 91.75 84.39 88.91 132.55 75.00 114.00
C 75.66 115.36 76.27 116.66 77.00 118.00
C 74.38 118.44 73.24 120.78 71.00 118.00
C 80.12 137.95 99.00 111.47 93.00 97.00 C 87.00 82.53 93.55 59.54 101.25 47.25 C 108.95 34.96 127.79 28.41 142.00 30.00
C 134.52 28.40 125.38 29.32 118.00 26.00
C 106.82 34.89 92.40 40.39 88.78 56.78 C 85.15 73.16 83.20 91.48 76.00 103.00 Z"/>
</g>
<g fill="#7B9390" fill-opacity="1.00" stroke="None">
<path d="
M 170.00 46.00 
C 168.30 43.72 166.33 41.73 164.00 40.00
C 165.74 41.52 168.44 44.21 170.00 46.00 Z"/>
</g>
<g fill="#C4D8CA" fill-opacity="1.00" stroke="None">
<path d="
M 192.00 101.00 
C 206.63 103.06 193.68 122.68 185.00 114.00
C 187.94 116.83 183.57 118.98 185.00 121.00
C 183.62 121.01 181.91 120.04 181.00 119.00
C 194.21 139.06 205.02 108.66 201.00 94.00 C 196.98 79.34 199.39 58.75 191.00 44.00
C 191.85 53.70 186.05 87.99 192.00 101.00 Z"/>
</g>
<g fill="#000000" fill-opacity="0.00" stroke="None">
<path d="
M 163.00 65.00 
C 162.09 62.73 158.66 57.01 158.00 56.00
C 142.13 34.56 104.69 47.74 108.00 75.00
C 126.67 75.00 145.33 75.00 164.00 75.00
C 164.48 71.53 163.79 67.81 163.00 65.00 Z"/>
</g>
<g fill="#93C3B2" fill-opacity="0.44" stroke="None">
<path d="
M 163.00 65.00 
C 162.00 61.45 160.32 58.94 158.00 56.00
C 158.66 57.01 162.09 62.73 163.00 65.00 Z"/>
</g>
<g fill="#DAECD9" fill-opacity="0.01" stroke="None">
<path d="
M 273.00 94.00 
L 273.00 87.00
C 273.00 87.00 272.00 87.03 272.00 87.00
C 271.62 89.05 271.62 92.66 273.00 94.00 Z"/>
</g>
<g fill="#C1CEC1" fill-opacity="0.01" stroke="None">
<path d="
M 0.00 93.00 
C 0.50 93.00 1.00 93.00 1.00 93.00
C 1.00 91.61 1.45 89.31 1.00 88.00
C 1.00 88.00 0.50 88.00 0.00 88.00
L 0.00 93.00 Z"/>
</g>
<g fill="#326260" fill-opacity="1.00" stroke="None">
<path d="
M 110.00 89.00 
C 113.22 88.60 116.75 89.00 120.00 89.00
C 116.71 88.68 113.53 87.56 110.00 89.00 Z"/>
</g>
<g fill="#85A8A1" fill-opacity="1.00" stroke="None">
<path d="
M 152.00 89.00 
C 153.99 89.00 156.01 88.92 158.00 89.00
C 160.00 89.08 162.00 88.94 164.00 89.00
C 164.00 94.00 164.00 99.00 164.00 104.00
C 165.27 90.85 166.04 87.64 152.00 89.00 Z"/>
</g>
<g fill="#C5E6DD" fill-opacity="1.00" stroke="None">
<path d="
M 218.00 106.00 
C 218.00 101.55 215.44 88.55 222.00 89.00
C 221.97 89.00 222.00 88.00 222.00 88.00
C 220.33 88.00 218.67 88.00 217.00 88.00
C 216.30 93.97 217.49 100.74 218.00 106.00 Z"/>
</g>
<g fill="#87A8A0" fill-opacity="1.00" stroke="None">
<path d="
M 222.00 89.00 
C 231.74 89.88 248.14 85.18 257.00 89.00
C 250.71 84.98 229.97 87.28 222.00 88.00
C 222.00 88.00 221.97 89.00 222.00 89.00 Z"/>
</g>
<g fill="#FBFCFC" fill-opacity="1.00" stroke="None">
<path d="
M 14.00 104.00 
C 14.00 134.67 14.00 165.33 14.00 196.00
C 14.00 202.00 14.00 208.00 14.00 214.00
C 14.00 227.33 14.00 240.67 14.00 254.00
C 14.64 260.62 13.76 269.64 14.00 276.00
C 14.76 281.67 17.56 288.38 21.00 293.00
C 28.74 299.81 39.41 302.80 50.00 298.00
C 49.07 296.86 48.92 295.45 49.00 294.00
C 47.11 284.69 35.22 276.95 28.00 272.00
C 26.21 270.77 24.47 269.29 23.00 268.00
C 22.77 267.84 22.94 266.49 23.00 266.00
C 21.95 263.41 23.07 258.10 27.00 257.00
C 42.53 252.64 60.64 284.04 67.00 294.00
C 67.75 295.18 70.06 295.79 69.00 298.00
C 109.87 295.94 162.15 303.87 199.07 290.07 C 236.00 276.28 239.07 237.38 260.00 212.00
C 260.00 195.61 262.51 162.74 260.00 148.00 C 257.49 133.26 267.79 95.89 257.00 89.00
C 248.14 85.18 231.74 89.88 222.00 89.00
C 215.44 88.55 218.00 101.55 218.00 106.00
C 218.00 111.23 217.95 115.32 216.00 120.00
C 214.61 125.78 197.69 150.02 188.00 140.00
C 187.75 139.74 188.00 139.00 188.00 139.00
C 170.07 138.39 164.00 118.84 164.00 104.00
C 164.00 99.00 164.00 94.00 164.00 89.00
C 162.00 88.94 160.00 89.08 158.00 89.00
C 150.02 89.30 114.27 95.70 108.00 90.00
C 102.74 103.18 114.20 121.26 98.75 131.75 C 83.31 142.24 77.88 140.66 62.25 131.75 C 46.62 122.84 62.45 99.22 56.00 90.00
C 42.50 89.33 27.68 91.33 15.00 89.00
C 12.48 90.76 14.00 100.85 14.00 104.00
M 47.00 167.00 
C 50.11 173.42 44.20 187.91 49.00 193.00
C 53.41 192.53 58.33 193.19 62.00 194.00
C 65.62 194.80 67.18 194.15 68.00 198.00
C 68.32 199.52 68.32 202.48 68.00 204.00
C 66.91 209.06 37.74 205.60 39.00 204.00
C 39.24 203.69 39.00 203.00 39.00 203.00
C 36.43 199.53 38.00 190.54 38.00 186.00
C 38.00 181.67 38.00 177.33 38.00 173.00
C 38.00 170.44 37.25 166.75 39.00 165.00
C 40.15 162.66 44.95 164.71 47.00 164.00
C 47.00 165.00 47.00 166.00 47.00 167.00
M 91.00 166.00 
C 93.73 169.78 94.27 200.73 91.00 204.00
C 88.93 206.07 85.07 204.85 83.00 204.00
C 81.67 203.46 81.97 204.11 81.00 203.00
C 76.38 197.69 78.38 164.40 85.00 164.00
C 87.66 163.45 89.55 163.98 91.00 166.00
M 115.00 164.00 
C 119.23 171.26 121.93 181.57 127.00 187.00
C 128.23 178.68 134.89 172.15 137.00 164.00
C 140.66 164.38 144.75 163.08 148.00 165.00
C 141.78 171.80 137.54 205.96 126.00 205.00 C 114.45 204.03 110.39 171.66 104.00 164.00
C 107.67 164.00 111.33 164.00 115.00 164.00
M 178.00 165.00 
C 184.66 165.25 188.66 167.20 192.00 173.00
C 194.02 176.51 194.54 178.98 193.00 183.00
C 191.69 186.43 187.30 189.79 187.78 193.22 C 188.26 196.66 195.64 202.24 194.00 205.00
C 192.57 207.40 185.66 205.93 184.00 205.00
C 174.92 199.94 170.36 183.90 169.00 206.00
C 168.06 205.43 167.18 204.85 166.00 205.00
C 164.05 205.30 162.05 207.12 160.00 205.00
C 159.44 198.78 160.00 192.25 160.00 186.00
C 160.00 182.63 158.17 166.39 161.00 165.00
C 162.51 163.54 164.84 164.06 167.00 164.00
C 170.85 163.89 174.88 164.55 178.00 165.00
M 234.00 174.00 
C 233.14 173.79 231.89 174.00 231.00 174.00
C 227.27 174.82 222.41 175.47 218.00 175.00
C 217.25 176.19 218.57 178.69 218.00 180.00
C 220.67 180.00 223.33 180.00 226.00 180.00
C 228.12 180.04 231.72 179.18 233.00 181.00
C 240.18 191.26 216.06 190.80 219.26 193.75 C 222.46 196.69 247.24 190.80 238.00 204.00
C 236.71 205.84 232.15 205.00 230.00 205.00
C 223.00 205.00 216.00 205.00 209.00 205.00
C 209.00 203.33 209.00 201.67 209.00 200.00
C 207.33 193.17 208.35 184.72 209.00 178.00
C 209.00 173.33 209.00 168.67 209.00 164.00
C 218.33 164.00 227.67 164.00 237.00 164.00
C 240.66 166.56 238.50 175.08 234.00 174.00
M 169.00 253.00 
C 164.07 260.42 156.18 265.38 148.00 263.00
C 129.17 257.52 123.95 232.74 142.08 223.08 C 160.20 213.42 180.43 235.81 169.00 253.00
M 86.00 237.00 
C 87.05 238.11 88.80 239.13 90.00 240.00
C 96.12 233.07 100.06 219.13 112.00 222.00
C 112.00 223.67 112.00 225.33 112.00 227.00
C 112.25 229.27 112.00 231.71 112.00 234.00
C 112.48 239.08 116.14 256.86 112.00 261.00
C 101.21 271.79 101.88 246.08 100.00 243.00
C 97.41 248.02 92.02 253.46 87.00 256.00
C 85.55 251.78 80.72 249.45 80.00 245.00
C 78.74 244.73 78.29 243.14 77.00 243.00
C 74.36 249.05 80.24 262.92 71.00 263.00
C 69.79 262.91 68.50 261.24 67.00 262.00
C 65.43 249.55 64.91 234.70 68.00 223.00
C 73.20 215.92 82.97 233.78 86.00 237.00
M 192.00 259.00 
C 192.06 258.51 192.00 258.00 192.00 258.00
C 188.52 253.30 188.81 216.31 198.00 221.00 C 207.19 225.69 198.03 252.86 202.00 262.00
C 198.67 262.00 195.33 262.00 192.00 262.00
C 192.00 261.00 192.00 260.00 192.00 259.00 Z"/>
</g>
<g fill="#D6F3ED" fill-opacity="1.00" stroke="None">
<path d="
M 56.00 90.00 
C 54.30 87.57 18.19 86.77 15.00 89.00
C 27.68 91.33 42.50 89.33 56.00 90.00 Z"/>
</g>
<g fill="#E1FCF9" fill-opacity="1.00" stroke="None">
<path d="
M 108.00 90.00 
C 114.27 95.70 150.02 89.30 158.00 89.00
C 156.01 88.92 153.99 89.00 152.00 89.00
C 141.33 89.00 130.67 89.00 120.00 89.00
C 116.75 89.00 113.22 88.60 110.00 89.00
C 109.03 89.12 108.40 89.01 108.00 90.00 Z"/>
</g>
<g fill="#235A4A" fill-opacity="0.07" stroke="None">
<path d="
M 0.00 104.00 
C 0.50 104.00 1.00 104.00 1.00 104.00
C 1.00 100.33 1.00 96.67 1.00 93.00
C 1.00 93.00 0.50 93.00 0.00 93.00
L 0.00 104.00 Z"/>
</g>
<g fill="#225740" fill-opacity="0.11" stroke="None">
<path d="
M 272.00 109.00 
C 272.00 108.96 273.00 109.00 273.00 109.00
L 273.00 96.00
C 271.18 99.34 272.00 104.83 272.00 109.00 Z"/>
</g>
<g fill="#1D4E34" fill-opacity="1.00" stroke="None">
<path d="
M 76.00 103.00 
C 73.90 106.36 74.21 110.47 75.00 114.00
C 88.91 132.55 91.75 84.39 76.00 103.00 Z"/>
</g>
<g fill="#104327" fill-opacity="1.00" stroke="None">
<path d="
M 185.00 114.00 
C 193.68 122.68 206.63 103.06 192.00 101.00
C 183.50 99.80 184.20 108.67 185.00 114.00 Z"/>
</g>
<g fill="#094F41" fill-opacity="0.23" stroke="None">
<path d="
M 0.00 110.00 
C 0.50 110.00 1.00 110.00 1.00 110.00
C 1.00 108.00 1.00 106.00 1.00 104.00
C 1.00 104.00 0.50 104.00 0.00 104.00
L 0.00 110.00 Z"/>
</g>
<g fill="#6C9D84" fill-opacity="1.00" stroke="None">
<path d="
M 14.00 196.00 
C 14.00 165.33 14.00 134.67 14.00 104.00
C 11.22 132.77 11.21 167.16 14.00 196.00 Z"/>
</g>
<g fill="#BCE0D0" fill-opacity="1.00" stroke="None">
<path d="
M 70.00 115.00 
C 69.84 112.99 69.01 109.33 69.00 108.00
C 68.82 110.70 69.49 112.94 70.00 115.00 Z"/>
</g>
<g fill="#034E35" fill-opacity="0.51" stroke="None">
<path d="
M 273.00 121.00 
L 273.00 109.00
C 273.00 109.00 272.00 108.96 272.00 109.00
C 272.00 112.84 271.23 117.91 273.00 121.00 Z"/>
</g>
<g fill="#045042" fill-opacity="0.53" stroke="None">
<path d="
M 0.00 122.00 
C 1.82 118.99 1.00 113.83 1.00 110.00
C 1.00 110.00 0.50 110.00 0.00 110.00
L 0.00 122.00 Z"/>
</g>
<g fill="#CFEADD" fill-opacity="1.00" stroke="None">
<path d="
M 193.00 139.00 
C 191.70 139.28 189.98 140.63 188.00 140.00
C 197.69 150.02 214.61 125.78 216.00 120.00
C 211.98 129.66 204.26 138.42 193.00 139.00 Z"/>
</g>
<g fill="#508361" fill-opacity="1.00" stroke="None">
<path d="
M 188.00 140.00 
C 189.98 140.63 191.70 139.28 193.00 139.00
C 191.36 139.08 189.65 139.06 188.00 139.00
C 188.00 139.00 187.75 139.74 188.00 140.00 Z"/>
</g>
<g fill="#173631" fill-opacity="1.00" stroke="None">
<path d="
M 39.00 165.00 
C 38.71 165.59 39.00 167.33 39.00 168.00
C 40.20 165.67 45.26 165.23 47.00 167.00
C 47.00 166.00 47.00 165.00 47.00 164.00
C 44.95 164.71 40.15 162.66 39.00 165.00 Z"/>
</g>
<g fill="#B6CDCC" fill-opacity="1.00" stroke="None">
<path d="
M 81.00 203.00 
C 79.36 198.89 79.09 166.95 82.00 165.00
C 81.87 165.09 85.22 163.95 85.00 164.00
C 78.38 164.40 76.38 197.69 81.00 203.00 Z"/>
</g>
<g fill="#05432A" fill-opacity="1.00" stroke="None">
<path d="
M 82.00 165.00 
C 77.05 172.78 88.16 198.37 83.00 204.00
C 85.07 204.85 88.93 206.07 91.00 204.00
C 93.38 200.60 92.92 169.89 91.00 166.00
C 89.55 163.98 87.66 163.45 85.00 164.00
C 85.22 163.95 81.87 165.09 82.00 165.00 Z"/>
</g>
<g fill="#0A4732" fill-opacity="1.00" stroke="None">
<path d="
M 115.00 164.00 
C 111.33 164.00 107.67 164.00 104.00 164.00
C 110.39 171.66 114.45 204.03 126.00 205.00 C 137.54 205.96 141.78 171.80 148.00 165.00
C 144.75 163.08 140.66 164.38 137.00 164.00
C 134.89 172.15 128.23 178.68 127.00 187.00
C 121.93 181.57 119.23 171.26 115.00 164.00 Z"/>
</g>
<g fill="#7BA5A2" fill-opacity="1.00" stroke="None">
<path d="
M 161.00 165.00 
C 161.60 164.71 163.32 165.00 164.00 165.00
C 165.00 165.00 166.00 165.00 167.00 165.00
C 167.25 164.73 167.00 164.00 167.00 164.00
C 164.84 164.06 162.51 163.54 161.00 165.00 Z"/>
</g>
<g fill="#4A817C" fill-opacity="1.00" stroke="None">
<path d="
M 167.00 165.00 
C 170.66 165.00 174.35 164.86 178.00 165.00
C 174.88 164.55 170.85 163.89 167.00 164.00
C 167.00 164.00 167.25 164.73 167.00 165.00 Z"/>
</g>
<g fill="#0B472F" fill-opacity="1.00" stroke="None">
<path d="
M 209.00 178.00 
C 209.00 185.16 208.14 192.90 209.00 200.00
C 209.00 201.67 209.00 203.33 209.00 205.00
C 216.00 205.00 223.00 205.00 230.00 205.00
C 231.95 204.81 235.34 203.07 238.00 204.00
C 247.24 190.80 222.46 196.69 219.26 193.75 C 216.06 190.80 240.18 191.26 233.00 181.00
C 230.66 181.98 227.57 180.15 226.00 180.00
C 223.33 180.00 220.67 180.00 218.00 180.00
C 218.57 178.69 217.25 176.19 218.00 175.00
C 219.47 172.67 228.29 174.00 231.00 174.00
C 231.89 174.00 233.14 173.79 234.00 174.00
C 235.00 173.95 236.00 174.04 237.00 174.00
C 237.00 170.67 237.00 167.33 237.00 164.00
C 227.67 164.00 218.33 164.00 209.00 164.00
C 209.00 168.67 209.00 173.33 209.00 178.00 Z"/>
</g>
<g fill="#AFDBD4" fill-opacity="1.00" stroke="None">
<path d="
M 234.00 174.00 
C 238.50 175.08 240.66 166.56 237.00 164.00
C 237.00 167.33 237.00 170.67 237.00 174.00
C 236.00 174.04 235.00 173.95 234.00 174.00 Z"/>
</g>
<g fill="#63847A" fill-opacity="1.00" stroke="None">
<path d="
M 38.00 173.00 
C 38.17 171.75 39.01 169.89 39.00 168.00
C 39.00 167.33 38.71 165.59 39.00 165.00
C 37.25 166.75 38.00 170.44 38.00 173.00 Z"/>
</g>
<g fill="#1C423D" fill-opacity="1.00" stroke="None">
<path d="
M 81.00 203.00 
C 81.97 204.11 81.67 203.46 83.00 204.00
C 88.16 198.37 77.05 172.78 82.00 165.00
C 79.09 166.95 79.36 198.89 81.00 203.00 Z"/>
</g>
<g fill="#0E3731" fill-opacity="1.00" stroke="None">
<path d="
M 160.00 186.00 
C 160.17 187.47 160.94 189.90 161.00 192.00
C 161.84 183.32 164.19 174.27 164.00 165.00
C 163.32 165.00 161.60 164.71 161.00 165.00
C 158.17 166.39 160.00 182.63 160.00 186.00 Z"/>
</g>
<g fill="#05442B" fill-opacity="1.00" stroke="None">
<path d="
M 161.00 192.00 
C 161.12 196.23 161.38 200.78 161.00 205.00
C 162.67 205.00 164.33 204.99 166.00 205.00
C 167.18 204.85 168.06 205.43 169.00 206.00
C 170.36 183.90 174.92 199.94 184.00 205.00
C 186.93 206.08 190.97 204.19 194.00 205.00
C 195.64 202.24 188.26 196.66 187.78 193.22 C 187.30 189.79 191.69 186.43 193.00 183.00
C 193.72 179.89 193.09 175.77 192.00 173.00
C 188.66 167.20 184.66 165.25 178.00 165.00
C 174.35 164.86 170.66 165.00 167.00 165.00
C 166.00 165.00 165.00 165.00 164.00 165.00
C 164.19 174.27 161.84 183.32 161.00 192.00
M 170.00 183.00 
C 169.97 162.18 195.88 187.49 170.00 183.00 Z"/>
</g>
<g fill="#06472F" fill-opacity="1.00" stroke="None">
<path d="
M 39.00 168.00 
C 39.01 169.89 38.17 171.75 38.00 173.00
C 38.00 177.33 38.00 181.67 38.00 186.00
C 38.49 191.04 39.00 197.27 39.00 203.00
C 39.00 203.00 39.24 203.69 39.00 204.00
C 41.74 206.83 64.00 206.22 67.00 204.00
C 66.54 202.07 68.12 198.91 68.00 198.00
C 67.18 194.15 65.62 194.80 62.00 194.00
C 58.51 193.64 51.38 195.52 49.00 193.00
C 44.20 187.91 50.11 173.42 47.00 167.00
C 45.26 165.23 40.20 165.67 39.00 168.00 Z"/>
</g>
<g fill="#A6CEB9" fill-opacity="1.00" stroke="None">
<path d="
M 91.00 204.00 
C 94.27 200.73 93.73 169.78 91.00 166.00
C 92.92 169.89 93.38 200.60 91.00 204.00 Z"/>
</g>
<g fill="#C5ECDD" fill-opacity="1.00" stroke="None">
<path d="
M 193.00 183.00 
C 194.54 178.98 194.02 176.51 192.00 173.00
C 193.09 175.77 193.72 179.89 193.00 183.00 Z"/>
</g>
<g fill="#2E5B62" fill-opacity="1.00" stroke="None">
<path d="
M 218.00 175.00 
C 222.41 175.47 227.27 174.82 231.00 174.00
C 228.29 174.00 219.47 172.67 218.00 175.00 Z"/>
</g>
<g fill="#E3F2F0" fill-opacity="1.00" stroke="None">
<path d="
M 170.00 183.00 
C 195.88 187.49 169.97 162.18 170.00 183.00 Z"/>
</g>
<g fill="#699185" fill-opacity="1.00" stroke="None">
<path d="
M 209.00 200.00 
C 208.14 192.90 209.00 185.16 209.00 178.00
C 208.35 184.72 207.33 193.17 209.00 200.00 Z"/>
</g>
<g fill="#8EB3B9" fill-opacity="1.00" stroke="None">
<path d="
M 233.00 181.00 
C 231.72 179.18 228.12 180.04 226.00 180.00
C 227.57 180.15 230.66 181.98 233.00 181.00 Z"/>
</g>
<g fill="#83AA9E" fill-opacity="1.00" stroke="None">
<path d="
M 39.00 203.00 
C 39.00 197.27 38.49 191.04 38.00 186.00
C 38.00 190.54 36.43 199.53 39.00 203.00 Z"/>
</g>
<g fill="#3C716A" fill-opacity="1.00" stroke="None">
<path d="
M 160.00 205.00 
C 160.00 205.04 161.00 205.00 161.00 205.00
C 161.38 200.78 161.12 196.23 161.00 192.00
C 160.94 189.90 160.17 187.47 160.00 186.00
C 160.00 192.25 159.44 198.78 160.00 205.00 Z"/>
</g>
<g fill="#C7E9D8" fill-opacity="1.00" stroke="None">
<path d="
M 62.00 194.00 
C 58.33 193.19 53.41 192.53 49.00 193.00
C 51.38 195.52 58.51 193.64 62.00 194.00 Z"/>
</g>
<g fill="#5B8F88" fill-opacity="1.00" stroke="None">
<path d="
M 67.00 204.00 
C 67.32 203.76 68.00 204.00 68.00 204.00
C 68.32 202.48 68.32 199.52 68.00 198.00
C 68.12 198.91 66.54 202.07 67.00 204.00 Z"/>
</g>
<g fill="#DAFAF2" fill-opacity="1.00" stroke="None">
<path d="
M 68.00 204.00 
C 68.00 204.00 67.32 203.76 67.00 204.00
C 64.00 206.22 41.74 206.83 39.00 204.00
C 37.74 205.60 66.91 209.06 68.00 204.00 Z"/>
</g>
<g fill="#7C9D91" fill-opacity="1.00" stroke="None">
<path d="
M 230.00 205.00 
C 232.15 205.00 236.71 205.84 238.00 204.00
C 235.34 203.07 231.95 204.81 230.00 205.00 Z"/>
</g>
<g fill="#B7DED1" fill-opacity="1.00" stroke="None">
<path d="
M 166.00 205.00 
C 164.33 204.99 162.67 205.00 161.00 205.00
C 161.00 205.00 160.00 205.04 160.00 205.00
C 162.05 207.12 164.05 205.30 166.00 205.00 Z"/>
</g>
<g fill="#C5F0E5" fill-opacity="1.00" stroke="None">
<path d="
M 194.00 205.00 
C 190.97 204.19 186.93 206.08 184.00 205.00
C 185.66 205.93 192.57 207.40 194.00 205.00 Z"/>
</g>
<g fill="#C9DECE" fill-opacity="1.00" stroke="None">
<path d="
M 67.00 294.00 
C 70.50 305.72 52.83 302.68 50.00 294.00
C 49.95 293.85 49.00 294.00 49.00 294.00
C 48.92 295.45 49.07 296.86 50.00 298.00
C 39.41 302.80 28.74 299.81 21.00 293.00
C 28.83 303.52 39.50 313.27 53.00 314.00
C 60.62 314.41 68.37 314.00 76.00 314.00
C 113.67 314.00 151.33 314.00 189.00 314.00
C 191.72 313.74 201.34 314.36 204.00 313.00
C 209.95 308.58 209.02 292.17 215.23 285.23 C 221.44 278.29 227.58 273.39 233.25 265.25 C 238.91 257.10 255.26 259.13 260.00 254.00
C 262.87 249.56 260.00 233.50 260.00 228.00
C 260.00 222.67 260.00 217.33 260.00 212.00
C 239.07 237.38 236.00 276.28 199.07 290.07 C 162.15 303.87 109.87 295.94 69.00 298.00
C 70.06 295.79 67.75 295.18 67.00 294.00 Z"/>
</g>
<g fill="#004D31" fill-opacity="0.77" stroke="None">
<path d="
M 273.00 219.00 
L 273.00 213.00
C 271.31 213.96 271.57 217.97 273.00 219.00 Z"/>
</g>
<g fill="#629580" fill-opacity="1.00" stroke="None">
<path d="
M 14.00 258.00 
C 14.00 256.67 14.00 255.33 14.00 254.00
C 14.00 240.67 14.00 227.33 14.00 214.00
C 12.67 227.75 12.66 244.18 14.00 258.00 Z"/>
</g>
<g fill="#064B35" fill-opacity="0.60" stroke="None">
<path d="
M 0.00 226.00 
C 0.50 226.00 1.00 226.00 1.00 226.00
C 1.00 223.48 1.69 219.77 0.00 218.00
L 0.00 226.00 Z"/>
</g>
<g fill="#094331" fill-opacity="1.00" stroke="None">
<path d="
M 148.00 263.00 
C 155.70 263.94 164.30 259.02 169.00 253.00
C 180.43 235.81 160.20 213.42 142.08 223.08 C 123.95 232.74 129.17 257.52 148.00 263.00
M 155.00 233.00 
C 165.18 236.21 159.79 254.38 147.93 250.07 C 136.07 245.77 143.19 229.27 155.00 233.00 Z"/>
</g>
<g fill="#0A5038" fill-opacity="1.00" stroke="None">
<path d="
M 68.00 223.00 
C 71.61 228.55 61.90 260.39 71.00 263.00
C 80.24 262.92 74.36 249.05 77.00 243.00
C 78.29 243.14 78.74 244.73 80.00 245.00
C 84.98 246.07 87.73 242.82 86.00 237.00
C 82.97 233.78 73.20 215.92 68.00 223.00 Z"/>
</g>
<g fill="#0B352A" fill-opacity="1.00" stroke="None">
<path d="
M 192.00 258.00 
C 195.10 251.43 189.71 220.64 198.29 224.71 C 206.88 228.77 197.07 269.19 192.00 259.00
C 192.00 260.00 192.00 261.00 192.00 262.00
C 195.33 262.00 198.67 262.00 202.00 262.00
C 198.03 252.86 207.19 225.69 198.00 221.00 C 188.81 216.31 188.52 253.30 192.00 258.00 Z"/>
</g>
<g fill="#0B3A2E" fill-opacity="1.00" stroke="None">
<path d="
M 86.00 237.00 
C 87.73 242.82 84.98 246.07 80.00 245.00
C 80.72 249.45 85.55 251.78 87.00 256.00
C 92.02 253.46 97.41 248.02 100.00 243.00
C 101.88 246.08 101.21 271.79 112.00 261.00
C 92.80 266.27 107.81 214.73 112.00 227.00
C 112.00 225.33 112.00 223.67 112.00 222.00
C 100.06 219.13 96.12 233.07 90.00 240.00
C 88.80 239.13 87.05 238.11 86.00 237.00 Z"/>
</g>
<g fill="#294F4C" fill-opacity="1.00" stroke="None">
<path d="
M 71.00 263.00 
C 61.90 260.39 71.61 228.55 68.00 223.00
C 64.91 234.70 65.43 249.55 67.00 262.00
C 68.50 261.24 69.79 262.91 71.00 263.00 Z"/>
</g>
<g fill="#014832" fill-opacity="1.00" stroke="None">
<path d="
M 192.00 258.00 
C 192.00 258.00 192.06 258.51 192.00 259.00
C 197.07 269.19 206.88 228.77 198.29 224.71 C 189.71 220.64 195.10 251.43 192.00 258.00 Z"/>
</g>
<g fill="#034C28" fill-opacity="1.00" stroke="None">
<path d="
M 112.00 261.00 
C 112.00 252.00 112.00 243.00 112.00 234.00
C 112.00 231.71 112.25 229.27 112.00 227.00
C 107.81 214.73 92.80 266.27 112.00 261.00 Z"/>
</g>
<g fill="#0C4C3C" fill-opacity="0.32" stroke="None">
<path d="
M 0.00 234.00 
C 0.50 234.00 1.00 234.00 1.00 234.00
C 1.00 231.33 1.00 228.67 1.00 226.00
C 1.00 226.00 0.50 226.00 0.00 226.00
L 0.00 234.00 Z"/>
</g>
<g fill="#558A7B" fill-opacity="1.00" stroke="None">
<path d="
M 260.00 254.00 
C 264.01 249.66 260.50 233.15 260.00 228.00
C 260.00 233.50 262.87 249.56 260.00 254.00 Z"/>
</g>
<g fill="#F1F7F6" fill-opacity="1.00" stroke="None">
<path d="
M 155.00 233.00 
C 143.19 229.27 136.07 245.77 147.93 250.07 C 159.79 254.38 165.18 236.21 155.00 233.00 Z"/>
</g>
<g fill="#1F5449" fill-opacity="0.09" stroke="None">
<path d="
M 0.00 247.00 
C 1.82 243.66 1.00 238.17 1.00 234.00
C 1.00 234.00 0.50 234.00 0.00 234.00
L 0.00 247.00 Z"/>
</g>
<g fill="#7DA48B" fill-opacity="1.00" stroke="None">
<path d="
M 112.00 261.00 
C 116.14 256.86 112.48 239.08 112.00 234.00
C 112.00 243.00 112.00 252.00 112.00 261.00 Z"/>
</g>
<g fill="#000000" fill-opacity="0.00" stroke="None">
<path d="
M 0.00 326.00 
L 50.00 326.00
C 16.48 320.00 -3.94 284.85 0.00 252.00
L 0.00 326.00 Z"/>
</g>
<g fill="#C2E3D9" fill-opacity="1.00" stroke="None">
<path d="
M 148.00 263.00 
C 156.18 265.38 164.07 260.42 169.00 253.00
C 164.30 259.02 155.70 263.94 148.00 263.00 Z"/>
</g>
<g fill="#D4F0E8" fill-opacity="1.00" stroke="None">
<path d="
M 14.00 258.00 
C 14.00 263.82 13.23 270.23 14.00 276.00
C 13.76 269.64 14.64 260.62 14.00 254.00
C 14.00 255.33 14.00 256.67 14.00 258.00 Z"/>
</g>
<g fill="#7FA48E" fill-opacity="1.00" stroke="None">
<path d="
M 23.00 266.00 
C 23.25 264.02 24.82 257.92 27.00 257.00
C 23.07 258.10 21.95 263.41 23.00 266.00 Z"/>
</g>
<g fill="#0E4C34" fill-opacity="1.00" stroke="None">
<path d="
M 23.00 266.00 
C 22.94 266.49 22.77 267.84 23.00 268.00
C 23.34 268.23 24.00 268.00 24.00 268.00
C 29.05 264.10 52.00 286.60 50.00 294.00
C 52.83 302.68 70.50 305.72 67.00 294.00
C 60.64 284.04 42.53 252.64 27.00 257.00
C 24.82 257.92 23.25 264.02 23.00 266.00 Z"/>
</g>
<g fill="#1D4038" fill-opacity="1.00" stroke="None">
<path d="
M 24.00 268.00 
C 25.89 268.92 26.62 270.79 28.00 272.00
C 35.22 276.95 47.11 284.69 49.00 294.00
C 49.00 294.00 49.95 293.85 50.00 294.00
C 52.00 286.60 29.05 264.10 24.00 268.00 Z"/>
</g>
<g fill="#86A3A7" fill-opacity="1.00" stroke="None">
<path d="
M 28.00 272.00 
C 26.62 270.79 25.89 268.92 24.00 268.00
C 24.00 268.00 23.34 268.23 23.00 268.00
C 24.47 269.29 26.21 270.77 28.00 272.00 Z"/>
</g>
<g fill="#AFD1B8" fill-opacity="1.00" stroke="None">
<path d="
M 259.00 271.00 
C 239.35 274.95 224.27 294.68 222.00 314.00
C 244.65 314.46 259.73 292.01 259.00 271.00 Z"/>
</g>
<g fill="#000000" fill-opacity="0.00" stroke="None">
<path d="
M 213.00 325.00 
C 213.04 325.00 213.00 326.00 213.00 326.00
L 273.00 326.00
L 273.00 279.00
C 265.15 308.07 243.27 325.00 213.00 325.00 Z"/>
</g>
<g fill="#689E88" fill-opacity="1.00" stroke="None">
<path d="
M 189.00 314.00 
C 193.14 314.00 200.84 315.35 204.00 313.00
C 201.34 314.36 191.72 313.74 189.00 314.00 Z"/>
</g>
<g fill="#01291C" fill-opacity="1.00" stroke="None">
<path d="
M 76.00 314.00 
C 68.37 314.00 60.62 314.41 53.00 314.00
C 60.19 315.17 68.78 314.70 76.00 314.00 Z"/>
</g>
<g fill="#064B39" fill-opacity="0.53" stroke="None">
<path d="
M 179.00 326.00 
L 191.00 326.00
C 191.00 325.50 191.00 325.00 191.00 325.00
C 187.16 325.00 182.09 324.23 179.00 326.00 Z"/>
</g>
<g fill="#3A6B5A" fill-opacity="0.10" stroke="None">
<path d="
M 191.00 326.00 
L 213.00 326.00
C 213.00 326.00 213.04 325.00 213.00 325.00
C 205.67 325.00 198.33 325.00 191.00 325.00
C 191.00 325.00 191.00 325.50 191.00 326.00 Z"/>
</g>
</svg>