<?xml version="1.0"?>
<svg width="500" height="500" xmlns="http://www.w3.org/2000/svg" xmlns:svg="http://www.w3.org/2000/svg">
 <g class="layer">
  <title>Layer 1</title>
  <rect fill="#fff" height="18" id="svg_21" transform="rotate(90, -4320.1, -7659.91) matrix(0.681654, 0, 0, 0.681654, 31.0557, 208.989)" width="3" x="1407.9" y="286.07"/>
  <rect fill="#fff" height="18" id="svg_30" transform="rotate(90, -2604.87, -11817.9) matrix(0.681654, 0, 0, 0.681654, -63.4929, 303.538)" width="3" x="1843.61" y="1018.78"/>
  <g id="svg_35" transform="translate(0, 1) matrix(0.997846, 0, 0, 0.997846, 19.9983, 0.38299)">
   <path d="m459.78,234.78a7.51,7.51 0 0 1 -1.47,11.06l-36.65,25.17l-16.14,10.76a4.44,4.44 0 0 1 -5.9,-0.88l0,0a4.44,4.44 0 0 1 1.21,-6.65l15.63,-9.08l27.29,-25.98l-17.54,-18.83l12.99,-9.75l20.59,24.19z" fill="#005431" id="svg_2"/>
   <polygon fill="#005431" id="svg_3" points="373.5897086050827,471.7220300330373 364.62389726311085,471.7220300330373 359.2988046859682,397.67049184444477 382.03404430512455,397.0208731534367 373.5897086050827,471.7220300330373"/>
   <path d="m374.24,495.76c-2.39,1.09 -4.39,-7.75 -6.41,-5.77c-5.64,5.54 -14.28,6.75 -21.81,4.33l2.63,-0.03a3.52,3.52 0 0 1 -2.22,-4.59l0,0a3.52,3.52 0 0 1 2.45,-2.18l6,-1.5l9.42,-16.56l9.61,-0.65l0,0a22.97,22.97 0 0 1 4.25,19.6c-0.87,3.57 -2.22,6.58 -3.93,7.36z" fill="#005431" id="svg_4"/>
   <polygon fill="#005431" id="svg_5" points="433.2862713500217,471.7220300330373 424.32046000804985,471.7220300330373 418.9953674309072,397.67049184444477 442.3802257410716,393.12386829045136 433.2862713500217,471.7220300330373"/>
   <path d="m433.94,495.76c-2.39,1.09 -4.4,-7.75 -6.41,-5.77c-5.64,5.54 -14.27,6.75 -21.81,4.33l2.64,-0.03a3.52,3.52 0 0 1 -2.22,-4.59l0,0a3.52,3.52 0 0 1 2.45,-2.18l6,-1.5l9.41,-16.56l10.27,-1.3l0.26,0.42a26.47,26.47 0 0 1 2.84,21.64c-0.85,2.74 -2.01,4.9 -3.42,5.54z" fill="#005431" id="svg_6"/>
   <path d="m443.45,212.27c-8.25,1.15 -13.95,5.66 -16.28,14.67l-15.16,-27.98a8.28,8.28 0 0 1 2.64,-10.52l0,0a8.28,8.28 0 0 1 11.25,1.65l17.54,22.19z" fill="#005431" id="svg_7"/>
   <path d="m459.34,389.87c-36.85,16.31 -74.56,18.31 -113.03,7.8c14.05,-54.48 30.63,-103.74 30.53,-144.2l37.68,-3.25l5.8,9.2a204.03,204.03 0 0 1 28,71.41l11.03,59.05z" fill="#005431" id="svg_8"/>
   <circle cx="581.78" cy="218.78" fill="#005431" id="svg_9" r="28.59" transform="matrix(0.681654, 0, 0, 0.681654, 1.0519, 1.0519)"/>
   <polygon fill="#a0616a" id="svg_10" points="419.05943895544624,184.6105389527802 395.02566923733684,185.90977633479633 391.1279986961745,164.47378449887765 410.6151032554044,161.22638792567886 419.05943895544624,184.6105389527802"/>
   <path d="m416.46,253.47l-26.33,0.74l-13.29,1.86c-6.52,-21.55 -12.02,-43.06 1.3,-61.06l15.59,-15.59l23.38,-0.65l0.31,0.18a18.83,18.83 0 0 1 8.63,21.91c-5.81,18.85 -9.54,36.67 -9.59,52.62z" fill="#005431" id="svg_11"/>
   <path d="m376.19,313.88l-1.64,22.32a4.97,4.97 0 0 1 -4.63,4.59l0,0a4.97,4.97 0 0 1 -5.3,-5.08l0.52,-21.84l16.24,-61.71l0.65,-37.68l18.19,-0.65l-1.3,43.52l-22.73,56.52z" fill="#005431" id="svg_12"/>
   <path d="m402.17,217.09c-7.72,-3.14 -14.91,-2.09 -21.44,4.55l0.89,-31.81a8.28,8.28 0 0 1 7.55,-7.79l0,0a8.28,8.28 0 0 1 8.92,7.06l4.07,27.99z" fill="#005431" id="svg_13"/>
   <path d="m438.87,236.9l-59.76,0c13.94,-36.92 18.43,-71.26 0,-100.69c0.31,-8.83 11.65,-16.5 20.46,-15.65l0,0c10.4,1 24.36,8.64 26.31,18.9l12.99,97.44z" fill="#005431" id="svg_14"/>
   <path d="m248.42,118.94l-2.73,0l0,-74.68a43.22,43.22 0 0 0 -43.22,-43.22l-158.21,0a43.22,43.22 0 0 0 -43.22,43.22l0,409.66a43.22,43.22 0 0 0 43.22,43.22l158.21,0a43.22,43.22 0 0 0 43.22,-43.22l0,-281.84l2.73,0l0,-53.15z" fill="#005431" id="svg_15"/>
   <path d="m204.22,12.3l-20.65,0a15.33,15.33 0 0 1 -14.2,21.12l-90.63,0a15.33,15.33 0 0 1 -14.19,-21.12l-19.29,0a32.28,32.28 0 0 0 -32.28,32.27l0,409.06a32.28,32.28 0 0 0 32.28,32.27l158.97,0a32.28,32.28 0 0 0 32.27,-32.27l0,-409.06a32.28,32.28 0 0 0 -32.27,-32.27z" fill="#fff" id="svg_16"/>
   <rect fill="#e6e6e6" height="211" id="svg_17" transform="matrix(0.681654, 0, 0, 0.681654, 1.0519, 1.0519)" width="246" x="58.44" y="110.23"/>
   <circle cx="131.44" cy="347.23" fill="#005431" id="svg_18" r="18" transform="matrix(0.681654, 0, 0, 0.681654, 1.0519, 1.0519)"/>
   <polygon fill="#fff" id="svg_19" points="96.78686816940899,236.723030226829 91.67445976982708,236.723030226829 91.67445976982708,231.6106218272471 89.62949640999432,231.6106218272471 89.62949640999432,236.723030226829 84.51708280980165,236.723030226829 84.51708280980165,238.76799358666176 89.62949640999432,238.76799358666176 89.62949640999432,243.88040198624367 91.67445976982708,243.88040198624367 91.67445976982708,238.76799358666176 96.78686816940899,238.76799358666176 96.78686816940899,236.723030226829"/>
   <circle cx="226.44" cy="347.23" fill="#005431" id="svg_20" r="18" transform="matrix(0.681654, 0, 0, 0.681654, 1.0519, 1.0519)"/>
   <path d="m130.99,94.13l-13.25,0a1.76,1.76 0 0 0 -1.76,1.76l0,5.81a1.76,1.76 0 0 0 1.76,1.76l2.19,0l0,8.71l8.86,0l0,-8.71l2.19,0a1.76,1.76 0 0 0 1.76,-1.76l0,-5.81a1.76,1.76 0 0 0 -1.76,-1.76z" fill="#005431" id="svg_22"/>
   <path d="m144.26,147.36a68.12,68.12 0 0 1 -11.85,-40.39a1.44,1.44 0 0 0 -1.12,-1.44l0,-2.51l-14,0l0,2.47l-0.19,0a1.44,1.44 0 0 0 -1.43,1.44q0,0.05 0,0.1q1.66,23.06 -11.17,41.35a3.96,3.96 0 0 0 -0.72,2.4l1.53,47.34a4.1,4.1 0 0 0 4.06,3.95l31.66,0a4.1,4.1 0 0 0 4.07,-4.02l0.59,-45.96a8.3,8.3 0 0 0 -1.42,-4.74z" fill="#005431" id="svg_23"/>
   <path d="m128.23,96.03a3.79,3.79 0 1 1 -7.59,0" fill="#ffffff" id="svg_24" opacity="0.2"/>
   <path d="m139.25,163.09l-3.84,0a10.06,10.06 0 0 0 -19.88,0l-3.83,0a2.83,2.83 0 0 0 -2.8,3.26l4.16,27.06l23.91,0l5.06,-26.97a2.83,2.83 0 0 0 -2.78,-3.35z" fill="#ffffff" id="svg_25"/>
   <rect fill="#e6e6e6" height="211" id="svg_26" transform="matrix(0.681654, 0, 0, 0.681654, 1.0519, 1.0519)" width="246" x="58.44" y="407.23"/>
   <circle cx="131.44" cy="644.23" fill="#005431" id="svg_27" r="18" transform="matrix(0.681654, 0, 0, 0.681654, 1.0519, 1.0519)"/>
   <polygon fill="#fff" id="svg_28" points="96.78686816940899,439.1744028502726 91.67445976982708,439.1744028502726 91.67445976982708,434.0619944506907 89.62949640999432,434.0619944506907 89.62949640999432,439.1744028502726 84.51708280980165,439.1744028502726 84.51708280980165,441.21936621010536 89.62949640999432,441.21936621010536 89.62949640999432,446.3317746096873 91.67445976982708,446.3317746096873 91.67445976982708,441.21936621010536 96.78686816940899,441.21936621010536 96.78686816940899,439.1744028502726"/>
   <circle cx="226.44" cy="644.23" fill="#005431" id="svg_29" r="18" transform="matrix(0.681654, 0, 0, 0.681654, 1.0519, 1.0519)"/>
   <path d="m157.75,380.82l0.1,0a15.71,15.71 0 0 0 14.7,-9.85a51.41,51.41 0 1 0 -68.49,28.16a15.57,15.57 0 0 0 17.29,-3.2a51.24,51.24 0 0 1 36.39,-15.11z" fill="#fff" id="svg_31"/>
   <circle cx="191.13" cy="509.39" fill="#f9a825" id="svg_32" r="24.91" transform="matrix(0.681654, 0, 0, 0.681654, 1.0519, 1.0519)"/>
  </g>
 </g>

</svg>